<?xml version="1.0" encoding="UTF-8"?>
<svg version="1.1" xmlns="http://www.w3.org/2000/svg" width="1047" height="414">
<path d="M0 0 C13.31032883 -0.04667172 26.62063769 -0.08204407 39.93103218 -0.10362434 C46.11388193 -0.11399015 52.29667503 -0.12801506 58.47949219 -0.15087891 C64.46419697 -0.17286757 70.44884782 -0.18462251 76.43358994 -0.18975449 C78.69852419 -0.19340416 80.96345604 -0.20052832 83.22836685 -0.21146011 C102.18966256 -0.29920385 121.13762979 0.30182459 139.75 4.25 C141.31572754 4.57750244 141.31572754 4.57750244 142.91308594 4.91162109 C177.01284858 12.30845324 209.0074494 30.91039575 228.5625 60.5 C242.71661319 82.79265147 248.99915765 108.82171717 250 135 C250.04125 136.00675781 250.0825 137.01351562 250.125 138.05078125 C250.84208208 173.32225618 241.2468932 211.50132236 217 238 C216.19175781 238.90105469 215.38351562 239.80210937 214.55078125 240.73046875 C188.29431165 268.5568319 146.83405391 281.11780114 109.48687744 282.26599121 C102.46234818 282.39513314 95.43933019 282.36537773 88.4140625 282.328125 C85.84858308 282.32505837 83.28310199 282.32318914 80.71762085 282.32244873 C75.39810135 282.31789212 70.07874002 282.30403815 64.75927734 282.28125 C57.92750777 282.25204309 51.09584234 282.24198899 44.26401711 282.2375679 C38.99346893 282.23402623 33.72293945 282.2236275 28.45240402 282.21169281 C25.93009001 282.20598828 23.40777368 282.20123018 20.88545609 282.19742584 C17.38925216 282.19059786 13.89314578 282.17699059 10.39697266 282.16113281 C9.3520163 282.16001495 8.30705994 282.15889709 7.23043823 282.15774536 C6.28626038 282.15203522 5.34208252 282.14632507 4.36929321 282.14044189 C3.13234931 282.1359799 3.13234931 282.1359799 1.87041664 282.13142776 C0 282 0 282 -1 281 C-1.0976735 279.51104126 -1.12555481 278.01745129 -1.12584114 276.5252924 C-1.12844889 275.55266738 -1.13105664 274.58004236 -1.13374341 273.57794386 C-1.13151268 272.49664637 -1.12928196 271.41534887 -1.12698364 270.30128479 C-1.12854363 269.16253039 -1.13010362 268.02377599 -1.13171089 266.85051388 C-1.13502403 263.67558246 -1.13381179 260.50068885 -1.13072467 257.32575834 C-1.12847232 253.90716238 -1.13194937 250.48857173 -1.13470459 247.06997681 C-1.1391632 240.3670949 -1.13818538 233.66422416 -1.13529195 226.96134181 C-1.13303808 221.51563357 -1.13272532 216.06992847 -1.13381577 210.62421989 C-1.133969 209.85060704 -1.13412223 209.07699419 -1.13428011 208.27993853 C-1.13459982 206.70858852 -1.13492403 205.13723852 -1.1352527 203.56588852 C-1.13810781 188.81313601 -1.13482009 174.06038971 -1.12945233 159.30763822 C-1.12498515 146.63762485 -1.12575946 133.96762063 -1.13037109 121.29760742 C-1.13571784 106.60097046 -1.13783218 91.90433894 -1.13475883 77.20770115 C-1.13444027 75.64166606 -1.1341259 74.07563096 -1.13381577 72.50959587 C-1.13366149 71.73898552 -1.13350721 70.96837517 -1.13334826 70.17441298 C-1.13248334 64.73312644 -1.13394547 59.29184334 -1.13629532 53.85055733 C-1.13909466 47.22240642 -1.13835224 40.59426735 -1.13301457 33.96611781 C-1.13037925 30.58163611 -1.12936965 27.19717421 -1.13266373 23.81269264 C-1.13537537 20.15034132 -1.13199386 16.48804652 -1.12698364 12.82569885 C-1.13032973 11.20709869 -1.13032973 11.20709869 -1.13374341 9.55579954 C-1.13113566 8.58056678 -1.12852791 7.60533402 -1.12584114 6.60054874 C-1.12567879 5.75431448 -1.12551644 4.90808022 -1.12534916 4.03620249 C-1 2 -1 2 0 0 Z M62 53 C62 111.41 62 169.82 62 230 C119.11670273 231.69661279 119.11670273 231.69661279 164.1875 205.1875 C168.61133779 200.63854356 171.84126888 195.47728823 175 190 C175.58587891 188.99839844 175.58587891 188.99839844 176.18359375 187.9765625 C188.33625236 165.56270965 189.24854939 133.37478277 182.16943359 109.1796875 C175.59435857 88.47631583 163.05296004 72.42560847 144 62 C118.36376704 49.11730862 90.22827763 53 62 53 Z " fill="#04293C" transform="translate(674,1)"/>
<path d="M0 0 C24.09 0 48.18 0 73 0 C73.99 13.365 73.99 13.365 75 27 C80.01322545 56.9319049 89.32085291 85.47840748 106 111 C106.63010986 111.97380615 106.63010986 111.97380615 107.27294922 112.96728516 C138.54007559 160.95194813 186.57712644 193.04195621 242.1875 205.6875 C256.99042284 208.35924705 272.02357092 209.59595977 287 211 C287 232.78 287 254.56 287 277 C214.9098488 277 151.04911238 251.20724084 97 204 C96.4961377 203.56075195 95.99227539 203.12150391 95.47314453 202.66894531 C63.89992849 174.94862742 38.79322828 137.27253747 24 98 C23.57807373 99.21969482 23.15614746 100.43938965 22.72143555 101.69604492 C18.87916948 112.76258504 14.8981415 123.76695207 10.7802124 134.73361206 C4.20274887 152.2621064 -2.2407068 169.8378453 -8.625 187.4375 C-19.34436773 216.98518995 -30.16915119 246.49287986 -41 276 C-61.79 276 -82.58 276 -104 276 C-102.87491444 269.24948662 -102.87491444 269.24948662 -101.62744141 265.96557617 C-101.20783646 264.84905418 -101.20783646 264.84905418 -100.77975464 263.7099762 C-100.47345123 262.91236374 -100.16714783 262.11475128 -99.8515625 261.29296875 C-99.52777618 260.4370665 -99.20398987 259.58116425 -98.87039185 258.69932556 C-97.79424972 255.85986641 -96.70979523 253.02366347 -95.625 250.1875 C-94.85680096 248.16726725 -94.08890328 246.14691988 -93.32128906 244.12646484 C-87.07930399 227.72317599 -80.73134204 211.36095242 -74.36938477 195.00390625 C-68.37555902 179.58713679 -62.45335944 164.14388499 -56.5625 148.6875 C-49.63406766 130.50922177 -42.67887781 112.34166564 -35.6875 94.1875 C-29.89732509 79.14784305 -24.11391561 64.10569028 -18.37075806 49.04800415 C-17.72973391 47.36747927 -17.08830682 45.68710801 -16.44638062 44.00692749 C-10.85808166 29.37603174 -5.44008611 14.68823249 0 0 Z " fill="#03283B" transform="translate(331,5)"/>
<path d="M0 0 C162.12619503 0 162.12619503 0 192 24 C193.5778125 25.1446875 193.5778125 25.1446875 195.1875 26.3125 C209.15588862 39.66007135 219.28159399 60.48044845 220.17700195 79.82373047 C220.20367339 81.25478005 220.22376216 82.68596304 220.23828125 84.1171875 C220.246353 84.8920047 220.25442474 85.6668219 220.26274109 86.46511841 C220.27652263 88.10400195 220.28727109 89.74291347 220.29516602 91.38183594 C220.30659814 93.02612982 220.32690807 94.67038922 220.35668945 96.31445312 C220.63975119 111.98879933 218.45483414 125.94171947 211 140 C210.22849609 141.47919922 210.22849609 141.47919922 209.44140625 142.98828125 C197.7022603 164.32478901 178.03569843 176.7583226 155.16455078 183.40234375 C141.43562082 187.19305213 128.19631363 188.14918411 114.02734375 188.09765625 C112.66638225 188.09618285 111.30542019 188.0951646 109.94445801 188.09460449 C104.94212993 188.08939769 99.93981406 188.07543653 94.9375 188.0625 C83.738125 188.041875 72.53875 188.02125 61 188 C61 217.7 61 247.4 61 278 C40.87 278 20.74 278 0 278 C0 186.26 0 94.52 0 0 Z M61 52 C60.90490441 54.61688441 60.87444 57.207289 60.88647461 59.82446289 C60.88632858 60.64390884 60.88618256 61.4633548 60.8860321 62.30763245 C60.88673148 65.02933353 60.89452499 67.75096705 60.90234375 70.47265625 C60.90420784 72.35452741 60.90563179 74.23639906 60.90663147 76.11827087 C60.91045733 81.08148529 60.92028819 86.04467064 60.93133545 91.00787354 C60.9415481 96.06839606 60.94612878 101.12892327 60.95117188 106.18945312 C60.9619104 116.12631488 60.97898764 126.06315503 61 136 C68.32040564 136.07011436 75.64073658 136.12311818 82.96141243 136.15543652 C86.36225536 136.170963 89.76286531 136.1919563 93.16357422 136.22631836 C97.09088052 136.26309629 101.01786417 136.27981641 104.9453125 136.29296875 C106.1417337 136.30845261 107.33815491 136.32393646 108.5708313 136.33988953 C122.26291927 136.34256379 136.65786395 134.13868035 147.3828125 124.9609375 C157.50882956 114.38653592 158.47948299 102.27258387 158.26953125 88.36328125 C157.91894155 78.49323123 155.51907333 70.10935418 148.3828125 62.93359375 C134.27823964 51.48807971 115.07244644 50.83082255 97.6796875 50.8671875 C96.65440948 50.86623077 95.62913147 50.86527405 94.57278442 50.86428833 C92.43003273 50.86361351 90.28727891 50.86541855 88.14453125 50.86962891 C84.84891275 50.87504286 81.55342713 50.86963212 78.2578125 50.86328125 C76.16927053 50.86394107 74.08072865 50.86522025 71.9921875 50.8671875 C71.00378876 50.86516327 70.01539001 50.86313904 68.99703979 50.86105347 C68.09164459 50.86420563 67.18624939 50.86735779 66.25341797 50.87060547 C65.05409134 50.87179886 65.05409134 50.87179886 63.83053589 50.87301636 C61.98111198 50.80006222 61.98111198 50.80006222 61 52 Z " fill="#03293C" transform="translate(2,5)"/>
<path d="M0 0 C20.46 0 40.92 0 62 0 C62 93.06 62 186.12 62 282 C41.54 282 21.08 282 0 282 C0 188.94 0 95.88 0 0 Z " fill="#01273A" transform="translate(980,2)"/>
<path d="M0 0 C21.78 0 43.56 0 66 0 C66.71357694 2.85430778 67.17037434 5.15039089 67.39453125 8.01953125 C69.90624545 37.16581775 80.87812761 62.55975798 103.28125 81.87890625 C123.43367901 97.60127544 143.44019737 102.6661127 169 106 C169 127.78 169 149.56 169 172 C148.0806962 172 148.0806962 172 139.4375 170.3125 C137.98283325 170.04022583 137.98283325 170.04022583 136.4987793 169.76245117 C110.82956885 164.77597995 84.89535907 154.29222798 65 137 C63.89463394 136.06344366 62.78776367 135.12866083 61.6796875 134.1953125 C59.44066891 132.308937 57.20804854 130.41548721 54.98046875 128.515625 C53.14379591 126.96540573 51.27992262 125.4460119 49.375 123.98046875 C44.91811406 120.26395367 41.58759616 115.53320857 38 111 C37.21367187 110.05253906 36.42734375 109.10507813 35.6171875 108.12890625 C17.15838853 85.30765801 5.61893205 57.41769536 1.1875 28.5 C1.00127075 27.32836304 1.00127075 27.32836304 0.8112793 26.13305664 C-0.39849866 17.30390961 0 9.13777087 0 0 Z " fill="#ED6121" transform="translate(449,5)"/>
<path d="M0 0 C6.414375 -0.0825 12.82875 -0.165 19.4375 -0.25 C21.44384521 -0.28641602 23.45019043 -0.32283203 25.51733398 -0.36035156 C27.13524308 -0.37205091 28.75316409 -0.38223977 30.37109375 -0.390625 C31.59753601 -0.4213208 31.59753601 -0.4213208 32.84875488 -0.45263672 C40.26821879 -0.45705899 46.19186307 1.61918826 51.875 6.4375 C58.33687715 14.22976362 58.61724204 21.1003872 58 31 C56.83059804 38.13335194 52.5842599 41.7554319 47 46 C47.57634399 49.46223759 48.44931462 52.24497636 50.06640625 55.35546875 C50.6706543 56.53592773 50.6706543 56.53592773 51.28710938 57.74023438 C51.70798828 58.54783203 52.12886719 59.35542969 52.5625 60.1875 C53.40071102 61.80414068 54.23552436 63.42254902 55.06640625 65.04296875 C55.43709229 65.75477295 55.80777832 66.46657715 56.18969727 67.19995117 C57 69 57 69 57 71 C51.06 71 45.12 71 39 71 C37.35391711 67.87513122 35.7081225 64.75011122 34.0625 61.625 C33.59392578 60.73554688 33.12535156 59.84609375 32.64257812 58.9296875 C32.19462891 58.07890625 31.74667969 57.228125 31.28515625 56.3515625 C30.87144775 55.56604004 30.45773926 54.78051758 30.03149414 53.97119141 C29.34211376 52.65378141 28.66495329 51.32990658 28 50 C24.7 49.67 21.4 49.34 18 49 C18 56.26 18 63.52 18 71 C12.06 71 6.12 71 0 71 C0 47.57 0 24.14 0 0 Z " fill="#ED6324" transform="translate(221,338)"/>
<path d="M0 0 C6.27 0 12.54 0 19 0 C25.01911673 6.72492721 25.01911673 6.72492721 26.41992188 9.8203125 C26.73243896 10.48708008 27.04495605 11.15384766 27.36694336 11.84082031 C27.8349939 12.84773926 27.8349939 12.84773926 28.3125 13.875 C28.9872406 15.19106053 29.66885566 16.50362004 30.35742188 17.8125 C31.63727127 20.25990823 32.86067374 22.71255175 34.05981445 25.20263672 C36.47410189 29.92792008 39.26991823 34.44986372 42 39 C42.33 26.13 42.66 13.26 43 0 C49.27 0 55.54 0 62 0 C62 23.43 62 46.86 62 71 C55.73 71 49.46 71 43 71 C37.02025587 64.55993832 37.02025587 64.55993832 35.62890625 61.58398438 C35.31840332 60.94291748 35.00790039 60.30185059 34.68798828 59.64135742 C34.37845215 58.99658447 34.06891602 58.35181152 33.75 57.6875 C33.0836556 56.42800197 32.41049837 55.17208395 31.73046875 53.91992188 C30.45919797 51.56931944 29.24438737 49.21376281 28.05371094 46.8190918 C25.31213632 41.72084503 22.10777888 36.88365252 19 32 C18.67 44.87 18.34 57.74 18 71 C12.06 71 6.12 71 0 71 C0 47.57 0 24.14 0 0 Z " fill="#ED6629" transform="translate(851,338)"/>
<path d="M0 0 C6.27 0 12.54 0 19 0 C25.01911673 6.72492721 25.01911673 6.72492721 26.41992188 9.8203125 C26.73243896 10.48708008 27.04495605 11.15384766 27.36694336 11.84082031 C27.8349939 12.84773926 27.8349939 12.84773926 28.3125 13.875 C28.9872406 15.19106053 29.66885566 16.50362004 30.35742188 17.8125 C31.63727127 20.25990823 32.86067374 22.71255175 34.05981445 25.20263672 C36.47410189 29.92792008 39.26991823 34.44986372 42 39 C42.33 26.13 42.66 13.26 43 0 C49.27 0 55.54 0 62 0 C62 23.43 62 46.86 62 71 C55.73 71 49.46 71 43 71 C37.02025587 64.55993832 37.02025587 64.55993832 35.62890625 61.58398438 C35.31840332 60.94291748 35.00790039 60.30185059 34.68798828 59.64135742 C34.37845215 58.99658447 34.06891602 58.35181152 33.75 57.6875 C33.0836556 56.42800197 32.41049837 55.17208395 31.73046875 53.91992188 C30.45919797 51.56931944 29.24438737 49.21376281 28.05371094 46.8190918 C25.31213632 41.72084503 22.10777888 36.88365252 19 32 C18.67 44.87 18.34 57.74 18 71 C12.06 71 6.12 71 0 71 C0 47.57 0 24.14 0 0 Z " fill="#ED6629" transform="translate(287,338)"/>
<path d="M0 0 C6.27 0 12.54 0 19 0 C25.01911673 6.72492721 25.01911673 6.72492721 26.41992188 9.8203125 C26.73243896 10.48708008 27.04495605 11.15384766 27.36694336 11.84082031 C27.8349939 12.84773926 27.8349939 12.84773926 28.3125 13.875 C28.9872406 15.19106053 29.66885566 16.50362004 30.35742188 17.8125 C31.63727127 20.25990823 32.86067374 22.71255175 34.05981445 25.20263672 C36.47410189 29.92792008 39.26991823 34.44986372 42 39 C42.33 26.13 42.66 13.26 43 0 C49.27 0 55.54 0 62 0 C62 23.43 62 46.86 62 71 C55.73 71 49.46 71 43 71 C37.02025587 64.55993832 37.02025587 64.55993832 35.62890625 61.58398438 C35.31840332 60.94291748 35.00790039 60.30185059 34.68798828 59.64135742 C34.37845215 58.99658447 34.06891602 58.35181152 33.75 57.6875 C33.0836556 56.42800197 32.41049837 55.17208395 31.73046875 53.91992188 C30.45919797 51.56931944 29.24438737 49.21376281 28.05371094 46.8190918 C25.31213632 41.72084503 22.10777888 36.88365252 19 32 C18.67 44.87 18.34 57.74 18 71 C12.06 71 6.12 71 0 71 C0 47.57 0 24.14 0 0 Z " fill="#ED6629" transform="translate(30,338)"/>
<path d="M0 0 C9.14781874 7.52153985 14.33728872 15.46401672 15.6875 27.3125 C16.22600879 37.84034692 13.57062829 47.13774715 7.09375 55.54296875 C0.63892618 62.59301198 -8.11074114 66.89506499 -17.65625 67.55078125 C-29.53713639 67.88035429 -39.83928153 66.32461859 -49.21875 58.35546875 C-56.26425802 51.04435626 -60.23407038 41.37096845 -60.5 31.25 C-60.09917314 20.56128382 -56.62507902 11.18758366 -49.1875 3.3125 C-34.91408377 -8.87937637 -15.90798606 -8.42187497 0 0 Z M-38.1875 19.3125 C-41.36315202 24.89726734 -42.07322646 30.02384213 -41.1875 36.3125 C-39.50461529 41.58734832 -36.99334676 45.40663917 -32.1875 48.3125 C-25.86089112 50.91757425 -19.56730549 50.84459926 -13.1328125 48.59375 C-8.23148347 46.15360336 -6.43622389 43.06941592 -4.1875 38.3125 C-2.38832928 32.91498784 -2.66586533 27.95976739 -4.375 22.5625 C-7.56861358 16.83602048 -11.05815234 13.83027727 -17.21484375 11.81640625 C-25.4010516 9.72527593 -33.02291429 12.81987797 -38.1875 19.3125 Z " fill="#ED6426" transform="translate(572.1875,342.6875)"/>
<path d="M0 0 C2 2 2 2 2.1953125 5.6953125 C2.182009 7.17200108 2.15814835 8.64862358 2.125 10.125 C2.11597656 10.87910156 2.10695313 11.63320313 2.09765625 12.41015625 C2.0740687 14.27357254 2.03819719 16.13682593 2 18 C-0.87765671 17.05527479 -3.71155647 16.1225885 -6.5 14.9375 C-15.25135028 11.65574365 -24.40006438 12.02781079 -32.8671875 15.796875 C-37.49547598 18.4077044 -39.31335904 22.15267893 -41 27 C-41.91196098 34.09420812 -41.25578565 40.13616505 -37 46 C-32.61958264 50.38041736 -28.01131725 52.0850383 -21.875 52.1875 C-17.94090219 52.12360886 -17.94090219 52.12360886 -14 51 C-13.67 47.37 -13.34 43.74 -13 40 C-16.63 40 -20.26 40 -24 40 C-24 35.71 -24 31.42 -24 27 C-14.76 27 -5.52 27 4 27 C4 38.88 4 50.76 4 63 C-5.24786077 67.62393038 -11.74433298 69.39423976 -21.8125 69.375 C-22.69180176 69.37338867 -23.57110352 69.37177734 -24.47705078 69.37011719 C-34.62918954 69.17888576 -43.27615512 66.42126277 -50.7734375 59.3203125 C-58.6448388 51.05035923 -61.36180089 41.19298612 -61.2109375 29.96875 C-60.46784055 19.51034843 -56.37770457 10.82458081 -48.6875 3.6875 C-35.77690362 -6.6409771 -14.45565834 -7.30784204 0 0 Z " fill="#ED6427" transform="translate(982,341)"/>
<path d="M0 0 C5.94 0 11.88 0 18 0 C18 9.24 18 18.48 18 28 C26.91 28 35.82 28 45 28 C45 18.76 45 9.52 45 0 C50.94 0 56.88 0 63 0 C63 23.43 63 46.86 63 71 C57.06 71 51.12 71 45 71 C45 61.76 45 52.52 45 43 C36.09 43 27.18 43 18 43 C18 52.24 18 61.48 18 71 C12.06 71 6.12 71 0 71 C0 47.57 0 24.14 0 0 Z " fill="#ED6324" transform="translate(749,338)"/>
<path d="M0 0 C1.02814316 0.00222061 2.05628632 0.00444122 3.11558533 0.00672913 C4.88174194 0.0069104 4.88174194 0.0069104 6.68357849 0.00709534 C8.55439087 0.01476929 8.55439087 0.01476929 10.46299744 0.02259827 C11.60216614 0.02360535 12.74133484 0.02461243 13.9150238 0.02565002 C18.19013977 0.03090114 22.46524144 0.04486225 26.74034119 0.05775452 C36.28971619 0.07837952 45.83909119 0.09900452 55.67784119 0.12025452 C55.67784119 19.59025452 55.67784119 39.06025452 55.67784119 59.12025452 C37.70674168 57.73786225 23.55345451 53.25405458 11.00205994 39.99525452 C1.69807647 28.48646152 -3.23369557 15.98208014 -3.32215881 1.12025452 C-2.32215881 0.12025452 -2.32215881 0.12025452 0 0 Z " fill="#ED6426" transform="translate(562.3221588134766,6.8797454833984375)"/>
<path d="M0 0 C16.5 0 33 0 50 0 C50 4.95 50 9.9 50 15 C39.44 15 28.88 15 18 15 C18 19.62 18 24.24 18 29 C25.92 29 33.84 29 42 29 C42 33.62 42 38.24 42 43 C34.08 43 26.16 43 18 43 C18 47.29 18 51.58 18 56 C28.56 56 39.12 56 50 56 C50 60.95 50 65.9 50 71 C33.5 71 17 71 0 71 C0 47.57 0 24.14 0 0 Z " fill="#ED6223" transform="translate(359,338)"/>
<path d="M0 0 C16.5 0 33 0 50 0 C50 4.95 50 9.9 50 15 C39.44 15 28.88 15 18 15 C18 19.62 18 24.24 18 29 C25.92 29 33.84 29 42 29 C42 33.62 42 38.24 42 43 C34.08 43 26.16 43 18 43 C18 47.29 18 51.58 18 56 C28.56 56 39.12 56 50 56 C50 60.95 50 65.9 50 71 C33.5 71 17 71 0 71 C0 47.57 0 24.14 0 0 Z " fill="#ED6223" transform="translate(162,338)"/>
<path d="M0 0 C0.78503906 0.00725098 1.57007813 0.01450195 2.37890625 0.02197266 C8.95161471 0.17814238 16.25728849 0.50728849 21.125 5.375 C21.26997985 7.95564129 21.31177545 10.42443884 21.25 13 C21.24097656 13.70640625 21.23195313 14.4128125 21.22265625 15.140625 C21.19907603 16.88556098 21.16320461 18.63032295 21.125 20.375 C20.12919922 20.06755859 20.12919922 20.06755859 19.11328125 19.75390625 C18.23027344 19.48449219 17.34726563 19.21507812 16.4375 18.9375 C15.56738281 18.67066406 14.69726562 18.40382813 13.80078125 18.12890625 C7.8713618 16.4582815 2.32166113 15.5410884 -3.75 17.125 C-5.98201725 18.19962466 -5.98201725 18.19962466 -6.9375 20.25 C-7.07833812 22.48183557 -7.07833812 22.48183557 -5.4609375 24.23046875 C-1.14217923 27.81203716 4.01523859 29.70086193 9.12695312 31.93164062 C15.78613321 34.94052622 21.00448891 38.50987559 24.125 45.375 C25.79522802 51.95312882 24.98227136 57.26758247 22.125 63.375 C18.9628392 68.645268 14.07411748 71.23062981 8.27148438 72.91210938 C-2.81355421 75.3026045 -17.7269261 74.44903695 -27.875 69.375 C-27.875 63.765 -27.875 58.155 -27.875 52.375 C-24.9453125 53.38411458 -22.015625 54.39322917 -19.0859375 55.40234375 C-11.78438568 57.6141277 -3.9350205 58.90501025 3.125 55.375 C3.125 53.395 3.125 51.415 3.125 49.375 C2.08601562 48.87871094 1.04703125 48.38242187 -0.0234375 47.87109375 C-22.82265763 36.83541747 -22.82265763 36.83541747 -26.3203125 29.45703125 C-27.88177596 23.59604515 -28.10207548 16.91396426 -25.25 11.4375 C-18.50518185 2.74023449 -10.64235453 -0.19395372 0 0 Z " fill="#ED6629" transform="translate(1019.875,336.625)"/>
<path d="M0 0 C16.5 0 33 0 50 0 C50 4.95 50 9.9 50 15 C39.44 15 28.88 15 18 15 C18 19.62 18 24.24 18 29 C25.92 29 33.84 29 42 29 C42 33.62 42 38.24 42 43 C34.08 43 26.16 43 18 43 C18 52.24 18 61.48 18 71 C12.06 71 6.12 71 0 71 C0 47.57 0 24.14 0 0 Z " fill="#ED6224" transform="translate(596,338)"/>
<path d="M0 0 C18.81 0 37.62 0 57 0 C57 4.95 57 9.9 57 15 C50.73 15 44.46 15 38 15 C38 33.48 38 51.96 38 71 C31.73 71 25.46 71 19 71 C19 52.52 19 34.04 19 15 C12.73 15 6.46 15 0 15 C0 10.05 0 5.1 0 0 Z " fill="#ED6528" transform="translate(685,338)"/>
<path d="M0 0 C18.81 0 37.62 0 57 0 C57 4.95 57 9.9 57 15 C50.73 15 44.46 15 38 15 C38 33.48 38 51.96 38 71 C31.73 71 25.46 71 19 71 C19 52.52 19 34.04 19 15 C12.73 15 6.46 15 0 15 C0 10.05 0 5.1 0 0 Z " fill="#ED6528" transform="translate(414,338)"/>
<path d="M0 0 C18.81 0 37.62 0 57 0 C57 4.95 57 9.9 57 15 C50.73 15 44.46 15 38 15 C38 33.48 38 51.96 38 71 C31.73 71 25.46 71 19 71 C19 52.52 19 34.04 19 15 C12.73 15 6.46 15 0 15 C0 10.05 0 5.1 0 0 Z " fill="#ED6528" transform="translate(98,338)"/>
<path d="M0 0 C5.94 0 11.88 0 18 0 C18 23.43 18 46.86 18 71 C12.06 71 6.12 71 0 71 C0 47.57 0 24.14 0 0 Z " fill="#ED6426" transform="translate(823,338)"/>
<path d="M0 0 C5.94 0 11.88 0 18 0 C18 23.43 18 46.86 18 71 C12.06 71 6.12 71 0 71 C0 47.57 0 24.14 0 0 Z " fill="#ED6426" transform="translate(1,338)"/>
<path d="M0 0 C3.83625 -0.061875 3.83625 -0.061875 7.75 -0.125 C8.54889648 -0.14320801 9.34779297 -0.16141602 10.17089844 -0.18017578 C16.95346749 -0.23313791 16.95346749 -0.23313791 20 2 C22.45665197 5.68497796 22.70086491 8.71971786 22 13 C20.20636089 15.8100346 18.98119065 17.50940468 16 19 C13.28024285 19.07187519 10.59325368 19.0927862 7.875 19.0625 C5.27625 19.041875 2.6775 19.02125 0 19 C0 12.73 0 6.46 0 0 Z " fill="#FEFBFA" transform="translate(239,353)"/>
</svg>
