<?xml version="1.0" encoding="UTF-8"?>
<svg version="1.1" xmlns="http://www.w3.org/2000/svg" width="617" height="177">
<path d="M0 0 C4.83799361 -0.09951569 9.67538025 -0.17177037 14.51416016 -0.21972656 C16.1571695 -0.23973571 17.80010859 -0.26695213 19.44287109 -0.30175781 C21.81625788 -0.35075305 24.18869649 -0.37307504 26.5625 -0.390625 C27.64893799 -0.42159271 27.64893799 -0.42159271 28.75732422 -0.45318604 C34.23058701 -0.45554791 38.4339477 0.94997856 43 4 C46.24817951 7.66461278 47.76447622 11.08618438 48.171875 15.91015625 C47.73751021 21.19163724 44.78199096 25.46796822 41 29 C41.928125 29.5775 42.85625 30.155 43.8125 30.75 C47.71697689 33.50610134 49.4982421 35.49472629 51 40 C51.59214676 45.82277646 51.00102516 49.41289191 47.59765625 54.23828125 C41.80217001 60.628903 34.10955456 60.57212231 26 61 C21.60279148 61.12327406 17.21119458 61.14064444 12.8125 61.125 C11.11770508 61.13080078 11.11770508 61.13080078 9.38867188 61.13671875 C7.78282227 61.13478516 7.78282227 61.13478516 6.14453125 61.1328125 C4.69590698 61.13112061 4.69590698 61.13112061 3.21801758 61.12939453 C1 61 1 61 0 60 C-0.09386381 58.1281906 -0.11743804 56.2528194 -0.11352539 54.37866211 C-0.11344986 53.17749252 -0.11337433 51.97632294 -0.11329651 50.73875427 C-0.10813522 49.4314888 -0.10297394 48.12422333 -0.09765625 46.77734375 C-0.09579198 45.43355868 -0.09436812 44.08977293 -0.09336853 42.74598694 C-0.08954402 39.20317723 -0.07971432 35.6604083 -0.06866455 32.11761475 C-0.05844899 28.50484773 -0.0538706 24.89207416 -0.04882812 21.27929688 C-0.03809198 14.1861812 -0.02101636 7.09309326 0 0 Z M11 10 C11 14.95 11 19.9 11 25 C13.89608593 25.05413245 16.79115195 25.09373641 19.6875 25.125 C20.50412109 25.14175781 21.32074219 25.15851562 22.16210938 25.17578125 C26.50621279 25.21095618 30.13115359 25.23401838 34 23 C36.33043558 19.50434664 36.58763244 18.1134271 36 14 C33.81166988 11.47116208 32.07172421 10.14914628 28.71411133 9.68188477 C26.02781236 9.60631114 23.37295535 9.65131189 20.6875 9.75 C19.75615234 9.76804687 18.82480469 9.78609375 17.86523438 9.8046875 C15.57637851 9.85163839 13.28805473 9.92337677 11 10 Z M11 35 C11 39.95 11 44.9 11 50 C14.91739994 50.10781835 18.831841 50.18723773 22.75 50.25 C23.86117188 50.28351563 24.97234375 50.31703125 26.1171875 50.3515625 C27.18710937 50.36445312 28.25703125 50.37734375 29.359375 50.390625 C30.34389648 50.41157227 31.32841797 50.43251953 32.34277344 50.45410156 C35.76458307 49.86933806 36.91882182 48.7316222 39 46 C39.60902229 41.28765524 39.60902229 41.28765524 37.6875 37.125 C34.46051781 34.97367854 31.65125055 34.88062861 27.89453125 34.90234375 C26.42016602 34.90717773 26.42016602 34.90717773 24.91601562 34.91210938 C23.37977539 34.92467773 23.37977539 34.92467773 21.8125 34.9375 C20.77673828 34.94201172 19.74097656 34.94652344 18.67382812 34.95117188 C16.1158608 34.96295974 13.55792314 34.98089518 11 35 Z " fill="#2066AD" transform="translate(422,18)"/>
<path d="M0 0 C0.804375 0.598125 1.60875 1.19625 2.4375 1.8125 C1.12525452 5.74923644 -0.48160327 8.03969294 -3.5625 10.8125 C-4.2225 10.544375 -4.8825 10.27625 -5.5625 10 C-6.5525 9.608125 -7.5425 9.21625 -8.5625 8.8125 C-9.16707031 8.54824219 -9.77164063 8.28398437 -10.39453125 8.01171875 C-15.79799997 5.76293788 -20.73342232 4.54890436 -26.515625 6.45703125 C-28.22330988 7.18530863 -29.89551421 7.9953501 -31.5625 8.8125 C-32.5525 9.1425 -33.5425 9.4725 -34.5625 9.8125 C-35.68185073 11.45880193 -35.68185073 11.45880193 -36.5625 13.8125 C-36.82289062 14.39386719 -37.08328125 14.97523437 -37.3515625 15.57421875 C-40.26537753 22.50474142 -40.41467156 28.02162192 -37.875 35.0625 C-35.67340697 40.11686146 -33.11812066 42.35214534 -28.375 45.0625 C-20.88362881 47.06019899 -14.52892752 45.90869001 -7.5625 42.8125 C-7.2325 39.1825 -6.9025 35.5525 -6.5625 31.8125 C-11.5125 31.8125 -16.4625 31.8125 -21.5625 31.8125 C-21.5625 28.5125 -21.5625 25.2125 -21.5625 21.8125 C-12.9825 21.8125 -4.4025 21.8125 4.4375 21.8125 C5.28802564 27.7661795 5.60437407 32.99151337 5.4375 38.9375 C5.44716797 40.25814453 5.44716797 40.25814453 5.45703125 41.60546875 C5.25938256 47.84552037 5.25938256 47.84552037 3.03662109 50.46069336 C-4.58721213 56.18754122 -15.13244701 58.93013591 -24.5625 57.8125 C-25.29984375 57.73 -26.0371875 57.6475 -26.796875 57.5625 C-34.98106435 56.20787556 -42.12148086 51.45496829 -47.27734375 44.9921875 C-51.32581804 38.12577823 -53.56721451 29.7246268 -52.5625 21.8125 C-49.79584296 11.18345536 -46.08078357 3.6513019 -36.5625 -2.1875 C-24.736228 -7.80661266 -11.05690955 -7.28516003 0 0 Z " fill="#155DA7" transform="translate(117.5625,22.1875)"/>
<path d="M0 0 C1.65902344 0.11794922 1.65902344 0.11794922 3.3515625 0.23828125 C6.15213731 0.65438733 7.96771657 1.24900136 10.375 2.6875 C10.375 3.3475 10.375 4.0075 10.375 4.6875 C11.035 4.6875 11.695 4.6875 12.375 4.6875 C12.375 5.3475 12.375 6.0075 12.375 6.6875 C13.035 6.6875 13.695 6.6875 14.375 6.6875 C14.375 7.3475 14.375 8.0075 14.375 8.6875 C15.035 8.6875 15.695 8.6875 16.375 8.6875 C16.87 10.6675 16.87 10.6675 17.375 12.6875 C10.28950642 16.39209817 4.56605739 19.0151423 -3.625 18.6875 C-3.625 19.3475 -3.625 20.0075 -3.625 20.6875 C-2.305 21.0175 -0.985 21.3475 0.375 21.6875 C-0.12 23.1725 -0.12 23.1725 -0.625 24.6875 C-1.945 24.6875 -3.265 24.6875 -4.625 24.6875 C-4.625 25.3475 -4.625 26.0075 -4.625 26.6875 C-10.62554754 28.35431876 -16.4195858 29.20429152 -22.625 29.6875 C-7.22793982 30.38553926 -7.22793982 30.38553926 6.546875 24.05078125 C8.375 22.6875 8.375 22.6875 10.375 22.6875 C10.375 22.0275 10.375 21.3675 10.375 20.6875 C12.02502828 19.33363064 13.6924387 18.00071858 15.375 16.6875 C15.705 16.0275 16.035 15.3675 16.375 14.6875 C17.035 14.6875 17.695 14.6875 18.375 14.6875 C18.705 13.3675 19.035 12.0475 19.375 10.6875 C20.035 10.6875 20.695 10.6875 21.375 10.6875 C22.04017923 32.14568913 22.04017923 32.14568913 15.8125 40.4375 C10.63883353 45.90425595 4.33792687 48.93380559 -3.1875 49.25 C-10.91406905 48.82498421 -16.38503902 46.39607537 -21.625 40.6875 C-23.83772002 38.06501702 -25.01959382 36.07777463 -25.625 32.6875 C-26.615 32.6875 -27.605 32.6875 -28.625 32.6875 C-28.625 32.0275 -28.625 31.3675 -28.625 30.6875 C-29.615 30.6875 -30.605 30.6875 -31.625 30.6875 C-31.625 30.0275 -31.625 29.3675 -31.625 28.6875 C-32.285 28.6875 -32.945 28.6875 -33.625 28.6875 C-33.625 28.0275 -33.625 27.3675 -33.625 26.6875 C-32.305 26.6875 -30.985 26.6875 -29.625 26.6875 C-29.625 27.3475 -29.625 28.0075 -29.625 28.6875 C-28.965 28.3575 -28.305 28.0275 -27.625 27.6875 C-27.65980469 27.11902344 -27.69460938 26.55054688 -27.73046875 25.96484375 C-27.99192754 18.5070429 -25.91907545 12.84856478 -21.625 6.6875 C-20.965 6.6875 -20.305 6.6875 -19.625 6.6875 C-19.625 6.0275 -19.625 5.3675 -19.625 4.6875 C-12.93898461 0.54217046 -7.96759536 -0.62509238 0 0 Z " fill="#115DA8" transform="translate(312.625,111.3125)"/>
<path d="M0 0 C0.91652344 0.01160156 1.83304687 0.02320313 2.77734375 0.03515625 C3.69644531 0.04417969 4.61554688 0.05320312 5.5625 0.0625 C6.27277344 0.07410156 6.98304688 0.08570313 7.71484375 0.09765625 C8.79222404 3.32979712 8.80062873 5.55105251 8.73657227 8.94604492 C8.71647598 10.14706345 8.6963797 11.34808197 8.67567444 12.585495 C8.64863937 13.8824379 8.62160431 15.1793808 8.59375 16.515625 C8.56944261 17.8565439 8.54559936 19.19747129 8.52220154 20.53840637 C8.45942206 24.06482626 8.39033819 27.59109556 8.31994629 31.11737061 C8.24920732 34.71684929 8.18442367 38.31643459 8.11914062 41.91601562 C7.99020747 48.97667831 7.85461462 56.03719912 7.71484375 63.09765625 C4.2987415 64.04079752 1.26349511 64.17830742 -2.28515625 64.09765625 C-2.94515625 62.44765625 -3.60515625 60.79765625 -4.28515625 59.09765625 C-5.33703125 60.02578125 -5.33703125 60.02578125 -6.41015625 60.97265625 C-11.56321745 64.78144061 -15.82854798 65.54762526 -22.05078125 64.62890625 C-28.70077532 63.04778878 -33.63762205 58.81175008 -37.28515625 53.09765625 C-40.14318093 46.11354134 -40.66025111 37.87704 -38.5625 30.5859375 C-35.72016984 24.54454748 -31.25048625 20.08872312 -25.28515625 17.09765625 C-19.46693405 16.3423081 -12.55820896 15.63651858 -7.47265625 19.03515625 C-5.28515625 21.09765625 -5.28515625 21.09765625 -4.28515625 22.09765625 C-4.24757202 21.15128296 -4.24757202 21.15128296 -4.20922852 20.18579102 C-4.09361488 17.343688 -3.97073309 14.50194542 -3.84765625 11.66015625 C-3.80833984 10.66693359 -3.76902344 9.67371094 -3.72851562 8.65039062 C-3.66567383 7.2340332 -3.66567383 7.2340332 -3.6015625 5.7890625 C-3.56490479 4.91451416 -3.52824707 4.03996582 -3.49047852 3.13891602 C-3.19816334 0.23279568 -2.93410779 0.12538922 0 0 Z M-25.09765625 30.47265625 C-28.72993291 34.83138824 -28.67284867 38.47611613 -28.28515625 44.09765625 C-26.55309806 48.74686508 -24.52672634 51.4948746 -20.28515625 54.09765625 C-16.28428101 55.18880404 -14.04210569 55.34997273 -10.09765625 54.03515625 C-6.59117416 51.6195797 -5.09022348 49.98549335 -3.28515625 46.09765625 C-2.51228306 40.79795435 -2.65356868 36.5124124 -4.84765625 31.59765625 C-7.89146471 28.47580142 -10.16645425 27.47055692 -14.28515625 26.09765625 C-18.69598596 26.09765625 -21.77525071 27.66706935 -25.09765625 30.47265625 Z " fill="#286AAD" transform="translate(355.28515625,14.90234375)"/>
<path d="M0 0 C4.39243685 -0.09976706 8.78425272 -0.17188558 13.17749023 -0.21972656 C14.66816718 -0.23969458 16.1587673 -0.2668792 17.64916992 -0.30175781 C26.27851539 -0.49847102 33.28887852 -0.41629054 41 4 C41 4.66 41 5.32 41 6 C41.66 6 42.32 6 43 6 C47.52115277 11.06917129 48.23188419 16.31246006 48 23 C46.9461571 29.05260211 44.84658681 33.07657258 40 37 C33.84445263 41.30888316 27.93008881 41.1362375 20.6875 41.0625 C16.3871875 41.0315625 16.3871875 41.0315625 12 41 C12 47.27 12 53.54 12 60 C8.04597945 60.79080411 4.96646209 61.18029373 1 61 C0 60 0 60 -0.12025452 57.60191345 C-0.11803391 56.53824051 -0.11581329 55.47456757 -0.11352539 54.37866211 C-0.11344986 53.17749252 -0.11337433 51.97632294 -0.11329651 50.73875427 C-0.10813522 49.4314888 -0.10297394 48.12422333 -0.09765625 46.77734375 C-0.09579198 45.43355868 -0.09436812 44.08977293 -0.09336853 42.74598694 C-0.08954402 39.20317723 -0.07971432 35.6604083 -0.06866455 32.11761475 C-0.05844899 28.50484773 -0.0538706 24.89207416 -0.04882812 21.27929688 C-0.03809198 14.1861812 -0.02101636 7.09309326 0 0 Z M12 10 C12 16.93 12 23.86 12 31 C14.35125 31.061875 16.7025 31.12375 19.125 31.1875 C19.85348145 31.21481201 20.58196289 31.24212402 21.33251953 31.27026367 C26.8528196 31.33988503 30.82823215 30.02698333 34.875 26.25 C36.50340357 22.99319286 36.37833086 20.59414313 36 17 C34.70837832 13.94089603 33.84002355 12.45292314 30.90625 10.87109375 C27.14032149 9.74232754 23.57384603 9.78540353 19.6875 9.875 C17.150625 9.91625 14.61375 9.9575 12 10 Z " fill="#0352A1" transform="translate(12,18)"/>
<path d="M0 0 C0.495 1.485 0.495 1.485 1 3 C-0.109375 4.82421875 -0.109375 4.82421875 -1.75 6.6875 C-2.28109375 7.31011719 -2.8121875 7.93273438 -3.359375 8.57421875 C-5 10 -5 10 -8 10 C-8 9.34 -8 8.68 -8 8 C-8.886875 7.71125 -9.77375 7.4225 -10.6875 7.125 C-14 6 -14 6 -16.4375 4.875 C-21.91444879 3.00482236 -26.90862231 3.8035425 -32.140625 5.953125 C-36.85196131 8.60572611 -39.32091419 12.97010697 -41 18 C-41.87515936 25.37779693 -41.51666949 31.90911671 -37 38 C-32.56531123 42.43468877 -28.24449049 43.82186583 -22.0625 44.3125 C-15.4208552 44.12273872 -10.2606806 40.72096921 -5 37 C-3.96468274 37.90027588 -2.94705835 38.82093035 -1.9375 39.75 C-1.36902344 40.26046875 -0.80054688 40.7709375 -0.21484375 41.296875 C1 43 1 43 0.89453125 45.01171875 C-1.20492624 49.6781985 -6.06692573 52.23642147 -10.66015625 54.05078125 C-21.66981476 57.31806387 -29.33904199 56.04070151 -40 52 C-40 51.34 -40 50.68 -40 50 C-40.59683594 49.73574219 -41.19367188 49.47148438 -41.80859375 49.19921875 C-48.76323546 45.39338095 -51.61782464 38.14652609 -54 31 C-54.96090263 19.91023851 -53.46221959 10.76543427 -46.25 2.0625 C-33.77400741 -10.85165129 -13.8849215 -10.8370119 0 0 Z " fill="#2265AB" transform="translate(209,24)"/>
<path d="M0 0 C5.48879121 3.57964644 8.19255992 7.62774195 9.875 13.875 C10.11791992 17.38598633 10.11791992 17.38598633 10.10546875 21.20703125 C10.10501053 21.88424728 10.10455231 22.56146332 10.1040802 23.25920105 C10.10107815 24.67859671 10.09325385 26.09798969 10.08081055 27.51733398 C10.062407 29.69852221 10.06030215 31.87928864 10.06054688 34.06054688 C10.02265045 44.72734955 10.02265045 44.72734955 8.875 45.875 C7.35571962 45.94679964 5.83332518 45.95892007 4.3125 45.9375 C3.48621094 45.92847656 2.65992188 45.91945312 1.80859375 45.91015625 C1.17050781 45.89855469 0.53242188 45.88695312 -0.125 45.875 C-0.785 44.555 -1.445 43.235 -2.125 41.875 C-3.094375 42.514375 -4.06375 43.15375 -5.0625 43.8125 C-9.93599272 46.56366525 -14.9030859 47.69702945 -20.40625 46.29296875 C-23.0608591 45.31672664 -25.59616137 44.13941931 -28.125 42.875 C-28.125 42.215 -28.125 41.555 -28.125 40.875 C-28.785 40.875 -29.445 40.875 -30.125 40.875 C-32.76383046 36.29399032 -32.76281658 32.04294976 -32.125 26.875 C-30.06319836 22.23594631 -27.29664137 19.63385998 -22.75 17.55859375 C-16.41700144 15.90937538 -8.31784132 15.81071956 -2.125 17.875 C-2.47170251 15.3094014 -2.78223078 13.36649621 -4.27734375 11.22265625 C-6.97761314 9.25311515 -9.07171356 9.54817939 -12.375 9.625 C-13.52871094 9.65078125 -14.68242187 9.6765625 -15.87109375 9.703125 C-19.36272967 9.88755715 -22.69050515 10.23602421 -26.125 10.875 C-26.785 7.905 -27.445 4.935 -28.125 1.875 C-19.57865365 -1.72346162 -8.94060326 -3.29390646 0 0 Z M-19.58984375 26.69140625 C-21.59371551 29.54169712 -21.43475745 31.46766809 -21.125 34.875 C-20.465 34.875 -19.805 34.875 -19.125 34.875 C-19.125 35.535 -19.125 36.195 -19.125 36.875 C-14.3493207 38.4668931 -10.53113679 38.40561766 -5.8125 36.625 C-3.01445623 34.80301801 -2.05345373 34.03174267 -1.125 30.875 C-0.87430087 28.24929296 -0.87430087 28.24929296 -1.125 25.875 C-3.10296285 23.89703715 -6.74546546 24.6002741 -9.4375 24.5625 C-10.11490234 24.53349609 -10.79230469 24.50449219 -11.49023438 24.47460938 C-14.92676199 24.43093894 -16.79224391 24.62978355 -19.58984375 26.69140625 Z " fill="#125CA8" transform="translate(247.125,33.125)"/>
<path d="M0 0 C4.42837454 4.14267296 6.8341769 8.44008362 7.22705078 14.50512695 C7.21657715 15.81956787 7.20610352 17.13400879 7.1953125 18.48828125 C7.1924826 19.19147995 7.18965271 19.89467865 7.18673706 20.6191864 C7.17560151 22.85046892 7.15050997 25.08134017 7.125 27.3125 C7.1149616 28.83137438 7.10583726 30.3502551 7.09765625 31.86914062 C7.07568413 35.57955921 7.04120047 39.28973942 7 43 C3.58093768 43.72978305 0.50129871 44.10003711 -3 44 C-3.66 42.68 -4.32 41.36 -5 40 C-5.969375 40.639375 -6.93875 41.27875 -7.9375 41.9375 C-12.82091167 44.69426465 -17.59006513 45.59113834 -23.140625 44.62890625 C-27.75167707 43.2121517 -30.98452327 40.83766659 -33.9296875 37.0234375 C-36.21398809 32.70494222 -35.77385495 28.57445862 -34.40234375 24.01171875 C-32.34162945 19.53565559 -29.30587138 17.41303984 -24.78125 15.6484375 C-18.48134041 14.17963835 -11.16686278 13.94437907 -5 16 C-5.33 13.69 -5.66 11.38 -6 9 C-9.3133541 7.89554863 -11.82695195 7.86695952 -15.3125 7.875 C-16.42238281 7.87242188 -17.53226562 7.86984375 -18.67578125 7.8671875 C-21.86801125 7.99472665 -24.86508827 8.40242227 -28 9 C-29.625 5.6875 -29.625 5.6875 -31 2 C-28.74456555 -1.38315168 -27.48212881 -1.8138415 -23.61328125 -2.6484375 C-15.60215581 -3.72616738 -7.01445932 -4.47731446 0 0 Z M-22.45703125 24.859375 C-24.36187956 27.50205063 -24.49118209 28.80731641 -24 32 C-22.27773504 35.24849977 -22.27773504 35.24849977 -19 36 C-14.49527054 36.25026275 -10.98967518 36.21648621 -7 34 C-4.4600352 31.54762019 -4.02918741 30.37213948 -3.75 26.8125 C-3.68810584 24.09798661 -3.68810584 24.09798661 -5 23 C-7.45492501 22.81936016 -9.85504249 22.72198257 -12.3125 22.6875 C-12.98990234 22.65849609 -13.66730469 22.62949219 -14.36523438 22.59960938 C-17.82950614 22.55558637 -19.66128376 22.7436742 -22.45703125 24.859375 Z " fill="#165EA8" transform="translate(513,35)"/>
<path d="M0 0 C3.63 0 7.26 0 11 0 C11.01458252 0.85231201 11.02916504 1.70462402 11.04418945 2.58276367 C11.10543285 5.76071175 11.17962029 8.93802546 11.26245117 12.11547852 C11.29559806 13.48775958 11.32366171 14.86017362 11.34643555 16.23266602 C11.38016766 18.21137766 11.4340149 20.18971376 11.48828125 22.16796875 C11.51446533 23.35672607 11.54064941 24.5454834 11.56762695 25.77026367 C12.03531893 29.263825 12.90543572 31.19216035 15 34 C18.13871188 35.56935594 20.53855822 35.35201103 24 35 C27.35606753 32.39792673 28.82367423 30.88815702 29.65942383 26.6784668 C29.67513428 25.44781494 29.69084473 24.21716309 29.70703125 22.94921875 C29.72215256 22.29041214 29.73727386 21.63160553 29.75285339 20.95283508 C29.79558566 18.864038 29.80455265 16.7766898 29.8125 14.6875 C29.83565614 13.26493583 29.86102383 11.84240583 29.88867188 10.41992188 C29.95137616 6.94664196 29.98382784 3.47384387 30 0 C33.63 0 37.26 0 41 0 C41 15.18 41 30.36 41 46 C32 46 32 46 30 45 C30 43.68 30 42.36 30 41 C29.34 41 28.68 41 28 41 C28 41.66 28 42.32 28 43 C22.58141351 45.98470603 18.27503822 47.70414442 12.0703125 46.6015625 C7.24706857 45.20009162 4.66329259 42.96766683 1.85644531 38.87280273 C-0.39577681 34.77411217 -0.52078311 31.25902335 -0.390625 26.66015625 C-0.38496521 25.89319931 -0.37930542 25.12624237 -0.37347412 24.33604431 C-0.35126494 21.91086686 -0.30110262 19.48722306 -0.25 17.0625 C-0.2299148 15.40822462 -0.21166758 13.75392584 -0.1953125 12.09960938 C-0.15145159 8.06582452 -0.08253637 4.03317134 0 0 Z " fill="#2567AC" transform="translate(563,33)"/>
<path d="M0 0 C4.7674051 5.18805849 5.56749738 10.60045136 5.41796875 17.43359375 C5.41372391 18.17835464 5.40947906 18.92311554 5.40510559 19.69044495 C5.38845724 22.04401473 5.35083375 24.39669379 5.3125 26.75 C5.29743515 28.35610733 5.28374991 29.96222823 5.27148438 31.56835938 C5.23859952 35.48341047 5.18691626 39.39780479 5.125 43.3125 C1.14303543 44.36654945 -1.85695309 44.15348656 -5.875 43.3125 C-5.90005615 42.4246582 -5.9251123 41.53681641 -5.95092773 40.62207031 C-6.04621797 37.31953963 -6.14544207 34.01717541 -6.24731445 30.71484375 C-6.29055318 29.28715612 -6.33223585 27.85942046 -6.37231445 26.43164062 C-6.43028602 24.37615504 -6.49390175 22.32090872 -6.55859375 20.265625 C-6.59525146 19.02973633 -6.63190918 17.79384766 -6.66967773 16.52050781 C-6.86261694 12.81950819 -6.86261694 12.81950819 -7.875 9.3125 C-10.56950262 8.41433246 -12.51111405 8.06032637 -15.3125 7.9375 C-16.07433594 7.88851562 -16.83617187 7.83953125 -17.62109375 7.7890625 C-21.05686337 8.58697087 -21.97952068 10.40720413 -23.875 13.3125 C-24.51216409 16.68650097 -24.51216409 16.68650097 -24.484375 20.36328125 C-24.50091125 21.02208786 -24.51744751 21.68089447 -24.53448486 22.35966492 C-24.58277556 24.44820651 -24.60429082 26.53602122 -24.625 28.625 C-24.65317596 30.04756224 -24.68310568 31.4700909 -24.71484375 32.89257812 C-24.78852563 36.36572825 -24.83821715 39.83874072 -24.875 43.3125 C-28.81520358 44.57336514 -31.35080299 44.3125 -35.875 44.3125 C-35.875 29.1325 -35.875 13.9525 -35.875 -1.6875 C-33.35446405 -2.94776798 -32.0207902 -2.60624445 -29.25 -2.25 C-28.02410156 -2.09724609 -28.02410156 -2.09724609 -26.7734375 -1.94140625 C-25.83371094 -1.81572266 -25.83371094 -1.81572266 -24.875 -1.6875 C-24.545 -0.6975 -24.215 0.2925 -23.875 1.3125 C-22.823125 0.673125 -21.77125 0.03375 -20.6875 -0.625 C-13.56296723 -4.62099543 -7.06722704 -4.148155 0 0 Z " fill="#2266AC" transform="translate(302.875,34.6875)"/>
<path d="M0 0 C1.10601562 0.07863281 2.21203125 0.15726562 3.3515625 0.23828125 C6.15213731 0.65438733 7.96771657 1.24900136 10.375 2.6875 C10.375 3.3475 10.375 4.0075 10.375 4.6875 C11.035 4.6875 11.695 4.6875 12.375 4.6875 C12.375 5.3475 12.375 6.0075 12.375 6.6875 C13.035 6.6875 13.695 6.6875 14.375 6.6875 C14.375 7.3475 14.375 8.0075 14.375 8.6875 C15.035 8.6875 15.695 8.6875 16.375 8.6875 C16.87 10.6675 16.87 10.6675 17.375 12.6875 C10.28950642 16.39209817 4.56605739 19.0151423 -3.625 18.6875 C-3.625 19.3475 -3.625 20.0075 -3.625 20.6875 C-2.305 21.0175 -0.985 21.3475 0.375 21.6875 C0.045 22.6775 -0.285 23.6675 -0.625 24.6875 C-1.945 24.6875 -3.265 24.6875 -4.625 24.6875 C-4.625 25.3475 -4.625 26.0075 -4.625 26.6875 C-22.05357143 28.97321429 -22.05357143 28.97321429 -26.625 26.6875 C-26.20637548 11.40770504 -26.20637548 11.40770504 -21.625 6.6875 C-20.965 6.6875 -20.305 6.6875 -19.625 6.6875 C-19.625 6.0275 -19.625 5.3675 -19.625 4.6875 C-12.93898461 0.54217046 -7.96759536 -0.62509238 0 0 Z " fill="#72C515" transform="translate(312.625,111.3125)"/>
<path d="M0 0 C1.37478516 0.01740234 1.37478516 0.01740234 2.77734375 0.03515625 C3.69644531 0.04417969 4.61554688 0.05320312 5.5625 0.0625 C6.27277344 0.07410156 6.98304688 0.08570313 7.71484375 0.09765625 C8.79222404 3.32979712 8.80062873 5.55105251 8.73657227 8.94604492 C8.70642784 10.74757271 8.70642784 10.74757271 8.67567444 12.585495 C8.64863937 13.8824379 8.62160431 15.1793808 8.59375 16.515625 C8.56944261 17.8565439 8.54559936 19.19747129 8.52220154 20.53840637 C8.45942206 24.06482626 8.39033819 27.59109556 8.31994629 31.11737061 C8.24920732 34.71684929 8.18442367 38.31643459 8.11914062 41.91601562 C7.99020747 48.97667831 7.85461462 56.03719912 7.71484375 63.09765625 C4.6025718 63.09765625 1.77332223 62.64138576 -1.28515625 62.09765625 C-1.61515625 60.44765625 -1.94515625 58.79765625 -2.28515625 57.09765625 C-4.26515625 57.09765625 -6.24515625 57.09765625 -8.28515625 57.09765625 C-7.95515625 56.10765625 -7.62515625 55.11765625 -7.28515625 54.09765625 C-8.27515625 53.76765625 -9.26515625 53.43765625 -10.28515625 53.09765625 C-9.48078125 52.31390625 -8.67640625 51.53015625 -7.84765625 50.72265625 C-4.40529752 47.19633755 -4.11324886 45.59435967 -4.03515625 40.78515625 C-4.09281671 36.36836483 -4.20658437 33.48408532 -7.28515625 30.09765625 C-10.35232749 27.80182762 -10.35232749 27.80182762 -13.28515625 26.09765625 C-12.95515625 24.77765625 -12.62515625 23.45765625 -12.28515625 22.09765625 C-9.95907055 21.71702404 -7.62460361 21.3849568 -5.28515625 21.09765625 C-4.95515625 21.42765625 -4.62515625 21.75765625 -4.28515625 22.09765625 C-4.2601001 21.46674072 -4.23504395 20.8358252 -4.20922852 20.18579102 C-4.09361488 17.343688 -3.97073309 14.50194542 -3.84765625 11.66015625 C-3.78868164 10.17032227 -3.78868164 10.17032227 -3.72851562 8.65039062 C-3.68662109 7.70615234 -3.64472656 6.76191406 -3.6015625 5.7890625 C-3.56490479 4.91451416 -3.52824707 4.03996582 -3.49047852 3.13891602 C-3.19816334 0.23279568 -2.93410779 0.12538922 0 0 Z " fill="#0B59A6" transform="translate(355.28515625,14.90234375)"/>
<path d="M0 0 C0 3.63 0 7.26 0 11 C-0.77085937 11.17015625 -1.54171875 11.3403125 -2.3359375 11.515625 C-3.84027344 11.87914062 -3.84027344 11.87914062 -5.375 12.25 C-6.37273438 12.48203125 -7.37046875 12.7140625 -8.3984375 12.953125 C-11.05858031 13.75057055 -11.05858031 13.75057055 -12.2265625 15.734375 C-12.48179687 16.48203125 -12.73703125 17.2296875 -13 18 C-13.35964844 18.83917969 -13.71929688 19.67835937 -14.08984375 20.54296875 C-15.38137568 25.44857287 -15.42821815 30.25891736 -15.5625 35.3125 C-15.62214555 37.30872228 -15.68572581 39.30483225 -15.75390625 41.30078125 C-15.77783447 42.17903564 -15.8017627 43.05729004 -15.82641602 43.9621582 C-16 46 -16 46 -17 47 C-20.3 47 -23.6 47 -27 47 C-27 31.82 -27 16.64 -27 1 C-23.37 1 -19.74 1 -16 1 C-15.67 2.98 -15.34 4.96 -15 7 C-14.13375 5.824375 -14.13375 5.824375 -13.25 4.625 C-9.15264029 -0.15525299 -6.21630417 -0.23908862 0 0 Z " fill="#0151A2" transform="translate(557,32)"/>
<path d="M0 0 C5.77798933 0.02265878 9.99056524 1.54184966 15 4.3125 C15 4.9725 15 5.6325 15 6.3125 C15.66 6.3125 16.32 6.3125 17 6.3125 C21.52115277 11.38167129 22.23188419 16.62496006 22 23.3125 C20.7090781 30.72673287 17.48501074 34.82320662 11.375 39.1875 C9 40.3125 9 40.3125 6 39.3125 C5.25 37.375 5.25 37.375 5 35.3125 C5.33 34.6525 5.66 33.9925 6 33.3125 C4.35 32.9825 2.7 32.6525 1 32.3125 C1 31.6525 1 30.9925 1 30.3125 C1.94875 29.879375 2.8975 29.44625 3.875 29 C7.20041937 27.51947799 7.20041937 27.51947799 9 24.3125 C9.45331302 18.43745179 9.45331302 18.43745179 7 13.3125 C2.65040261 11.06356044 -1.52488001 10.89359769 -6.3125 10.6875 C-8.849375 10.56375 -11.38625 10.44 -14 10.3125 C-14 17.2425 -14 24.1725 -14 31.3125 C-9.71 31.3125 -5.42 31.3125 -1 31.3125 C-1 31.6425 -1 31.9725 -1 32.3125 C-5.62 32.3125 -10.24 32.3125 -15 32.3125 C-15 22.4125 -15 12.5125 -15 2.3125 C-10.545 1.8175 -10.545 1.8175 -6 1.3125 C-4.31902094 -0.36847906 -2.30482547 0.06082178 0 0 Z " fill="#3372B2" transform="translate(38,17.6875)"/>
<path d="M0 0 C14.92387801 -0.81899331 14.92387801 -0.81899331 21 4 C24.24817951 7.66461278 25.76447622 11.08618438 26.171875 15.91015625 C25.73751021 21.19163724 22.78199096 25.46796822 19 29 C19.928125 29.5775 20.85625 30.155 21.8125 30.75 C24.61729813 32.7298575 26.40526005 33.99813657 28 37 C27.6875 39.25 27.6875 39.25 27 41 C26.34 39.68 25.68 38.36 25 37 C24.34 37 23.68 37 23 37 C23 37.66 23 38.32 23 39 C22.01 39.33 21.02 39.66 20 40 C20 39.34 20 38.68 20 38 C19.443125 38.226875 18.88625 38.45375 18.3125 38.6875 C16 39 16 39 14.0625 37.5625 C9.41940243 35.19357267 4.83143302 35.42768724 -0.3125 35.3125 C-1.85260742 35.26125977 -1.85260742 35.26125977 -3.42382812 35.20898438 C-5.94910963 35.12676591 -8.4740554 35.05753064 -11 35 C-11 34.67 -11 34.34 -11 34 C-3.74 33.67 3.52 33.34 11 33 C10.67 32.01 10.34 31.02 10 30 C9.01 29.67 8.02 29.34 7 29 C7 28.34 7 27.68 7 27 C1.06 26.67 -4.88 26.34 -11 26 C-11 25.67 -11 25.34 -11 25 C-9.75863281 24.95101562 -8.51726562 24.90203125 -7.23828125 24.8515625 C-5.59633306 24.77650201 -3.95440703 24.70095561 -2.3125 24.625 C-1.49587891 24.5940625 -0.67925781 24.563125 0.16210938 24.53125 C4.4506472 24.32289998 8.15264306 24.10959611 12 22 C13.41441874 19.17116253 13.31900332 17.12623255 13 14 C10.18201595 11.28391412 8.09505389 10.61202096 4.234375 10.48828125 C3.34492188 10.45283203 2.45546875 10.41738281 1.5390625 10.38085938 C0.61867188 10.35830078 -0.30171875 10.33574219 -1.25 10.3125 C-2.18585938 10.27833984 -3.12171875 10.24417969 -4.0859375 10.20898438 C-6.39050533 10.12667838 -8.69470119 10.0574737 -11 10 C-11 9.67 -11 9.34 -11 9 C-0.605 8.505 -0.605 8.505 10 8 C10.66 6.02 11.32 4.04 12 2 C8.04 1.67 4.08 1.34 0 1 C0 0.67 0 0.34 0 0 Z " fill="#3472B1" transform="translate(444,18)"/>
<path d="M0 0 C1.51400391 0.01740234 1.51400391 0.01740234 3.05859375 0.03515625 C4.07050781 0.04417969 5.08242188 0.05320313 6.125 0.0625 C7.29869141 0.07990234 7.29869141 0.07990234 8.49609375 0.09765625 C8.52136437 6.48802856 8.53892692 12.87838808 8.55102539 19.26879883 C8.55606683 21.44458498 8.56289982 23.62036772 8.5715332 25.79614258 C8.58360713 28.91618692 8.5893238 32.03618663 8.59375 35.15625 C8.59891129 36.13540878 8.60407257 37.11456757 8.60939026 38.12339783 C8.60946579 39.02425613 8.60954132 39.92511444 8.60961914 40.85327148 C8.61183975 41.65047104 8.61406036 42.44767059 8.61634827 43.26902771 C8.49609375 45.09765625 8.49609375 45.09765625 7.49609375 46.09765625 C5.99871251 46.19556195 4.49666483 46.22740489 2.99609375 46.22265625 C2.18140625 46.22523437 1.36671875 46.2278125 0.52734375 46.23046875 C-1.50390625 46.09765625 -1.50390625 46.09765625 -2.50390625 45.09765625 C-2.63104347 43.72264543 -2.69209688 42.34141915 -2.72509766 40.9609375 C-2.74827057 40.08332764 -2.77144348 39.20571777 -2.7953186 38.30151367 C-2.81516815 37.34736572 -2.8350177 36.39321777 -2.85546875 35.41015625 C-2.87862152 34.43731689 -2.90177429 33.46447754 -2.92562866 32.4621582 C-2.97334067 30.40093336 -3.01856572 28.33964972 -3.06152344 26.27832031 C-3.12862124 23.11110934 -3.20635217 19.94428259 -3.28515625 16.77734375 C-3.3300689 14.77996225 -3.37436069 12.78256666 -3.41796875 10.78515625 C-3.44186676 9.8310083 -3.46576477 8.87686035 -3.49038696 7.89379883 C-3.50725555 7.01618896 -3.52412415 6.1385791 -3.54150391 5.234375 C-3.55847321 4.45795654 -3.5754425 3.68153809 -3.59292603 2.8815918 C-3.44967133 0.01080111 -2.86661517 0.11180246 0 0 Z " fill="#1D62AA" transform="translate(377.50390625,32.90234375)"/>
<path d="M0 0 C3.63 0 7.26 0 11 0 C11 15.18 11 30.36 11 46 C8.03 46 5.06 46 2 46 C-0.09391167 43.90608833 0.26485428 39.89649151 0 37 C0 36.01 0 35.02 0 34 C-0.16749756 33.4215332 -0.33499512 32.84306641 -0.50756836 32.24707031 C-1.19063219 29.13010475 -1.00041725 26.23316341 -0.87890625 23.046875 C-0.85529526 22.38665344 -0.83168427 21.72643188 -0.80735779 21.04620361 C-0.7310719 18.947231 -0.64689847 16.84866051 -0.5625 14.75 C-0.5092441 13.32293603 -0.45650396 11.89585272 -0.40429688 10.46875 C-0.27550501 6.97892267 -0.13963981 3.48941202 0 0 Z " fill="#1457A1" transform="translate(593,33)"/>
<path d="M0 0 C0 0.33 0 0.66 0 1 C-6.435 1.495 -6.435 1.495 -13 2 C-12.67 3.32 -12.34 4.64 -12 6 C-7.71 6.33 -3.42 6.66 1 7 C1 7.33 1 7.66 1 8 C0.09636719 8.06058594 -0.80726563 8.12117188 -1.73828125 8.18359375 C-2.91777344 8.26738281 -4.09726563 8.35117187 -5.3125 8.4375 C-7.07013672 8.55931641 -7.07013672 8.55931641 -8.86328125 8.68359375 C-12.02590958 8.8867371 -12.02590958 8.8867371 -15 10 C-15.33 12.64 -15.66 15.28 -16 18 C-15.34 18 -14.68 18 -14 18 C-14 18.66 -14 19.32 -14 20 C-6.43592467 20.20589721 -6.43592467 20.20589721 1 19 C1 20.65 1 22.3 1 24 C1.66 24.33 2.32 24.66 3 25 C-2.21686729 28.44091247 -6.66026991 30.31481536 -13 30 C-16.54488799 29.09556796 -19.72823065 27.63588468 -23 26 C-23 25.34 -23 24.68 -23 24 C-23.66 24 -24.32 24 -25 24 C-27.63883046 19.41899032 -27.63781658 15.16794976 -27 10 C-24.93850937 5.36164608 -22.17266996 2.77054501 -17.63671875 0.6796875 C-11.92407993 -0.79290384 -5.85151333 -0.27428969 0 0 Z " fill="#2466AA" transform="translate(242,50)"/>
<path d="M0 0 C2.72732654 2.72732654 3.94896587 4.28382105 4.22705078 8.1862793 C4.21657715 9.46929932 4.20610352 10.75231934 4.1953125 12.07421875 C4.1924826 12.7580513 4.18965271 13.44188385 4.18673706 14.1464386 C4.17555684 16.32697165 4.15045691 18.50709145 4.125 20.6875 C4.11496738 22.16731177 4.10584202 23.64712999 4.09765625 25.12695312 C4.07562481 28.751436 4.04111002 32.37567766 4 36 C0.90226756 36.84062397 -1.78332751 37.08935201 -5 37 C-5.66 35.68 -6.32 34.36 -7 33 C-7.81210937 33.73669922 -7.81210937 33.73669922 -8.640625 34.48828125 C-11.57241283 36.3667612 -13.30299691 36.31060725 -16.75 36.1875 C-17.73484375 36.16042969 -18.7196875 36.13335937 -19.734375 36.10546875 C-20.48203125 36.07066406 -21.2296875 36.03585938 -22 36 C-22 35.34 -22 34.68 -22 34 C-21.34 34 -20.68 34 -20 34 C-20.33 32.68 -20.66 31.36 -21 30 C-20.32453125 29.91363281 -19.6490625 29.82726562 -18.953125 29.73828125 C-13.19187968 28.85074187 -13.19187968 28.85074187 -8.375 25.75 C-6.77287141 22.54574283 -6.60679493 20.53884564 -7 17 C-7.33 16.34 -7.66 15.68 -8 15 C-6.68 14.67 -5.36 14.34 -4 14 C-4.33 13.01 -4.66 12.02 -5 11 C-4.67 10.67 -4.34 10.34 -4 10 C-3.95919217 8.00041636 -3.95745644 5.99954746 -4 4 C-2.68 4 -1.36 4 0 4 C0 2.68 0 1.36 0 0 Z " fill="#1059A7" transform="translate(515,42)"/>
<path d="M0 0 C0.33 0 0.66 0 1 0 C1.33 11.22 1.66 22.44 2 34 C4.64 33.67 7.28 33.34 10 33 C10.33 33.99 10.66 34.98 11 36 C11.66 36 12.32 36 13 36 C13 36.66 13 37.32 13 38 C12.34 38 11.68 38 11 38 C11 38.66 11 39.32 11 40 C17.27 40 23.54 40 30 40 C30 40.33 30 40.66 30 41 C24.06 41 18.12 41 12 41 C12 47.27 12 53.54 12 60 C8.04597945 60.79080411 4.96646209 61.18029373 1 61 C0 60 0 60 -0.12025452 57.60191345 C-0.11803391 56.53824051 -0.11581329 55.47456757 -0.11352539 54.37866211 C-0.11344986 53.17749252 -0.11337433 51.97632294 -0.11329651 50.73875427 C-0.10813522 49.4314888 -0.10297394 48.12422333 -0.09765625 46.77734375 C-0.09579198 45.43355868 -0.09436812 44.08977293 -0.09336853 42.74598694 C-0.08954402 39.20317723 -0.07971432 35.6604083 -0.06866455 32.11761475 C-0.05844899 28.50484773 -0.0538706 24.89207416 -0.04882812 21.27929688 C-0.03809198 14.1861812 -0.02101636 7.09309326 0 0 Z " fill="#4A84BD" transform="translate(12,18)"/>
<path d="M0 0 C0 3.63 0 7.26 0 11 C-0.77085937 11.17015625 -1.54171875 11.3403125 -2.3359375 11.515625 C-3.84027344 11.87914062 -3.84027344 11.87914062 -5.375 12.25 C-6.37273438 12.48203125 -7.37046875 12.7140625 -8.3984375 12.953125 C-11.05858031 13.75057055 -11.05858031 13.75057055 -12.2265625 15.734375 C-12.48179687 16.48203125 -12.73703125 17.2296875 -13 18 C-13.35964844 18.83917969 -13.71929688 19.67835937 -14.08984375 20.54296875 C-15.38137568 25.44857287 -15.42821815 30.25891736 -15.5625 35.3125 C-15.62214555 37.30872228 -15.68572581 39.30483225 -15.75390625 41.30078125 C-15.77783447 42.17903564 -15.8017627 43.05729004 -15.82641602 43.9621582 C-16 46 -16 46 -17 47 C-20.3 47 -23.6 47 -27 47 C-27 31.82 -27 16.64 -27 1 C-26.67 1 -26.34 1 -26 1 C-26 15.85 -26 30.7 -26 46 C-23.36 46 -20.72 46 -18 46 C-18.01047363 45.30438965 -18.02094727 44.6087793 -18.03173828 43.89208984 C-18.07348637 40.71976377 -18.09938585 37.54749569 -18.125 34.375 C-18.14175781 33.28058594 -18.15851562 32.18617187 -18.17578125 31.05859375 C-18.23662606 21.01920021 -18.23662606 21.01920021 -16 16 C-15.34 16 -14.68 16 -14 16 C-14 15.34 -14 14.68 -14 14 C-14.99 14.33 -15.98 14.66 -17 15 C-18.39151652 10.20699867 -17.68662689 5.84864218 -17 1 C-16.67 1 -16.34 1 -16 1 C-15.67 2.98 -15.34 4.96 -15 7 C-14.13375 5.824375 -14.13375 5.824375 -13.25 4.625 C-9.15264029 -0.15525299 -6.21630417 -0.23908862 0 0 Z " fill="#316EB0" transform="translate(557,32)"/>
<path d="M0 0 C12.8180531 -0.78053097 12.8180531 -0.78053097 17.3125 2.1875 C20 6.66666667 20 6.66666667 20 10 C18.85188978 13.69946627 17.79596414 16.22890974 15 18.9375 C10.41898755 20.55994191 5.81455212 20.42006159 1 20 C0 19 0 19 -0.11352539 17.14233398 C-0.10828857 16.35157471 -0.10305176 15.56081543 -0.09765625 14.74609375 C-0.09443359 13.89208984 -0.09121094 13.03808594 -0.08789062 12.15820312 C-0.07951172 11.26037109 -0.07113281 10.36253906 -0.0625 9.4375 C-0.05798828 8.53580078 -0.05347656 7.63410156 -0.04882812 6.70507812 C-0.03700225 4.46998686 -0.0205222 2.23502563 0 0 Z M6 5 C6 7.97 6 10.94 6 14 C7.98 14 9.96 14 12 14 C12.33 11.69 12.66 9.38 13 7 C10.04622502 4.63019987 10.04622502 4.63019987 6 5 Z " fill="#658EBC" transform="translate(353,126)"/>
<path d="M0 0 C-0.60990891 3.55780196 -1.5783681 6.6828589 -3 10 C-3.66 9.67 -4.32 9.34 -5 9 C-5 8.34 -5 7.68 -5 7 C-7.70860124 7.14176421 -10.41680752 7.28828216 -13.125 7.4375 C-13.88554687 7.47681641 -14.64609375 7.51613281 -15.4296875 7.55664062 C-19.68509203 7.79509002 -23.80370826 8.20230237 -28 9 C-29.625 5.6875 -29.625 5.6875 -31 2 C-28.74456555 -1.38315168 -27.48212881 -1.8138415 -23.61328125 -2.6484375 C-15.40627706 -3.75251878 -7.3351224 -4.19149852 0 0 Z " fill="#155EA8" transform="translate(513,35)"/>
<path d="M0 0 C0.44988281 0.3609375 0.89976562 0.721875 1.36328125 1.09375 C7.21730031 5.3170904 11.91641922 5.58595797 19 5 C19 5.66 19 6.32 19 7 C19.804375 6.979375 20.60875 6.95875 21.4375 6.9375 C24 7 24 7 25 8 C25.04063832 9.66617115 25.042721 11.33388095 25 13 C26.98 13 28.96 13 31 13 C30.67 13.66 30.34 14.32 30 15 C28.02 15 26.04 15 24 15 C23.34 13.35 22.68 11.7 22 10 C21.29875 10.61875 20.5975 11.2375 19.875 11.875 C14.71954758 15.68555179 10.46227686 16.43866523 4.23828125 15.5390625 C-1.74059976 14.09912257 -5.93219275 10.43760791 -10 6 C-9.67 5.34 -9.34 4.68 -9 4 C-6.5 5.3125 -6.5 5.3125 -4 7 C-4 7.99 -4 8.98 -4 10 C-3.34 9.67 -2.68 9.34 -2 9 C-2.33 8.01 -2.66 7.02 -3 6 C-1.35 6 0.3 6 2 6 C1.34 4.02 0.68 2.04 0 0 Z " fill="#0F58A4" transform="translate(329,64)"/>
<path d="M0 0 C1 3 1 3 0 10 C5.28 10 10.56 10 16 10 C13.50494038 12.49505962 12.32671112 12.35948376 8.875 12.625 C7.96492188 12.69976562 7.05484375 12.77453125 6.1171875 12.8515625 C5.06917969 12.92503906 5.06917969 12.92503906 4 13 C19.39706018 13.69803926 19.39706018 13.69803926 33.171875 7.36328125 C35 6 35 6 37 6 C37 5.34 37 4.68 37 4 C37.66 4.33 38.32 4.66 39 5 C38.65989056 7.89093026 38.41928947 9.52138578 37 12 C26.18271971 19.84862818 13.65984229 19.87553219 1 18 C1 17.34 1 16.68 1 16 C0.01 16 -0.98 16 -2 16 C-2 15.34 -2 14.68 -2 14 C-2.99 14 -3.98 14 -5 14 C-5 13.34 -5 12.68 -5 12 C-5.66 12 -6.32 12 -7 12 C-7 11.34 -7 10.68 -7 10 C-5.68 10 -4.36 10 -3 10 C-3 10.66 -3 11.32 -3 12 C-2.34 11.67 -1.68 11.34 -1 11 C-1.01160156 10.37351563 -1.02320313 9.74703125 -1.03515625 9.1015625 C-1.04417969 8.28429687 -1.05320312 7.46703125 -1.0625 6.625 C-1.07410156 5.81289062 -1.08570313 5.00078125 -1.09765625 4.1640625 C-1 2 -1 2 0 0 Z " fill="#0D95CF" transform="translate(286,128)"/>
<path d="M0 0 C-0.875 4.75 -0.875 4.75 -2 7 C-2.66 7 -3.32 7 -4 7 C-4 7.66 -4 8.32 -4 9 C-4.92941406 9.06058594 -5.85882813 9.12117188 -6.81640625 9.18359375 C-15.94146885 9.79571552 -15.94146885 9.79571552 -25 11 C-25.66 8.03 -26.32 5.06 -27 2 C-18.78555274 -1.45871464 -8.63374975 -2.87791658 0 0 Z " fill="#4278B1" transform="translate(246,33)"/>
<path d="M0 0 C3 2 3 2 3.6875 4.1015625 C4.40191658 9.87047636 4.0624799 13.5347693 0.6015625 18.30078125 C-2.02745183 21.09010133 -4.46415659 22.49399262 -8 24 C-8.99 23.67 -9.98 23.34 -11 23 C-11.75 21.0625 -11.75 21.0625 -12 19 C-11.67 18.34 -11.34 17.68 -11 17 C-12.65 16.67 -14.3 16.34 -16 16 C-16 15.34 -16 14.68 -16 14 C-15.05125 13.566875 -14.1025 13.13375 -13.125 12.6875 C-9.79958063 11.20697799 -9.79958063 11.20697799 -8 8 C-7.34 8 -6.68 8 -6 8 C-6 6.02 -6 4.04 -6 2 C-3.1875 0.875 -3.1875 0.875 0 0 Z " fill="#2A6CAE" transform="translate(55,34)"/>
<path d="M0 0 C0.33 0 0.66 0 1 0 C1.66 2.97 2.32 5.94 3 9 C3.33 7.35 3.66 5.7 4 4 C5.65 4 7.3 4 9 4 C7.125 7.875 7.125 7.875 6 9 C6.928125 9.5775 7.85625 10.155 8.8125 10.75 C11.61729813 12.7298575 13.40526005 13.99813657 15 17 C14.6875 19.25 14.6875 19.25 14 21 C13.34 19.68 12.68 18.36 12 17 C11.34 17 10.68 17 10 17 C10 17.66 10 18.32 10 19 C9.01 19.33 8.02 19.66 7 20 C7 19.34 7 18.68 7 18 C6.443125 18.226875 5.88625 18.45375 5.3125 18.6875 C3 19 3 19 1.0625 17.5625 C-3.58059757 15.19357267 -8.16856698 15.42768724 -13.3125 15.3125 C-14.33923828 15.27833984 -15.36597656 15.24417969 -16.42382812 15.20898438 C-18.94910963 15.12676591 -21.4740554 15.05753064 -24 15 C-24 14.67 -24 14.34 -24 14 C-16.74 13.67 -9.48 13.34 -2 13 C-2.33 12.01 -2.66 11.02 -3 10 C-3.99 9.67 -4.98 9.34 -6 9 C-6 8.34 -6 7.68 -6 7 C-11.94 6.67 -17.88 6.34 -24 6 C-24 5.67 -24 5.34 -24 5 C-22.75863281 4.95101562 -21.51726562 4.90203125 -20.23828125 4.8515625 C-18.59633306 4.77650201 -16.95440703 4.70095561 -15.3125 4.625 C-14.49587891 4.5940625 -13.67925781 4.563125 -12.83789062 4.53125 C-8.5493528 4.32289998 -4.84735694 4.10959611 -1 2 C-0.67 1.34 -0.34 0.68 0 0 Z " fill="#477FB9" transform="translate(457,38)"/>
<path d="M0 0 C3.10672287 2.64071444 3.86512486 4.5363667 5 8.4375 C5 12.88481694 3.82158293 14.62977595 1 18 C-2.70746082 20.47164055 -5.70196862 20.77851134 -10 20 C-12.80346167 18.65241328 -13.85988865 17.45329837 -16 15 C-17.26372224 10.91148688 -17.2741007 8.79184647 -15.875 4.75 C-11.71159916 -1.35632123 -6.83201651 -2.06876014 0 0 Z M-11 4 C-12.91844457 6.58990016 -13.01001406 7.87482427 -12.75 11.125 C-12.23116835 14.10597798 -12.23116835 14.10597798 -10 16 C-5.31790006 16.50814856 -5.31790006 16.50814856 -1.125 14.75 C0.20345668 12.68351183 0.85463211 11.47125406 1 9 C-0.14786941 6.75643706 -1.2095767 4.7904233 -3 3 C-6.06481021 2.8386942 -8.05549278 3.01849759 -11 4 Z " fill="#6C8CBA" transform="translate(412,126)"/>
<path d="M0 0 C3.14373796 2.67217727 3.87287599 4.52540369 4.9375 8.5 C5.02387834 13.33718716 3.51764453 15.36993736 0.3125 18.8125 C-3.09980957 20.56476708 -6.29501052 20.64082323 -10 20 C-13.70369232 18.06763879 -15.26042006 16.06363392 -16.5625 12.1875 C-17.21218352 8.93908238 -16.92097818 7.05197055 -15.375 4.125 C-11.06047497 -1.55200662 -6.64375285 -1.86855549 0 0 Z M-10.4375 4 C-12.30945395 6.04352591 -12.30945395 6.04352591 -12.4375 9.5 C-12.23698839 12.84998653 -12.23698839 12.84998653 -10.9375 14.9375 C-7.80823783 16.653547 -5.48236342 16.49748049 -2 16 C0.17020292 13.91078244 0.17020292 13.91078244 1 11 C0.74662339 8.27620145 0.2177024 6.4354048 -1 4 C-4.57118028 3.12405012 -6.98370211 2.58305728 -10.4375 4 Z " fill="#6085B6" transform="translate(435,126)"/>
<path d="M0 0 C0.28617188 0.5775 0.57234375 1.155 0.8671875 1.75 C5.01733183 10.1171928 5.01733183 10.1171928 12.46484375 15.390625 C17.87750607 16.69166556 23.47789875 16.27920737 29 16 C25.34540533 18.43639644 22.64952517 18.22860705 18.4375 18.125 C17.75236328 18.11597656 17.06722656 18.10695313 16.36132812 18.09765625 C14.57409098 18.07310147 12.78701715 18.03727266 11 18 C10.34 18 9.68 18 9 18 C8.7525 18.61875 8.505 19.2375 8.25 19.875 C6.77952822 22.37480203 5.58596924 22.83316022 3 24 C1.55524014 22.77937479 0.11949236 21.54807874 -1.3125 20.3125 C-2.11300781 19.62800781 -2.91351563 18.94351563 -3.73828125 18.23828125 C-6.04068226 15.95973932 -7.58586119 13.91032663 -9 11 C-8.67 10.34 -8.34 9.68 -8 9 C-6.515 9.99 -6.515 9.99 -5 11 C-1.19015156 8.22920113 -0.93159248 4.37131855 0 0 Z " fill="#296AAD" transform="translate(77,52)"/>
<path d="M0 0 C9.7357877 0.68983523 9.7357877 0.68983523 13.671875 5.01953125 C15.24643239 8.16864604 15.01986618 10.53961941 14.671875 14.01953125 C12.89906939 16.99625709 10.81579485 19.44757132 7.671875 21.01953125 C5.79807895 21.08986894 3.92186398 21.10383345 2.046875 21.08203125 C1.04398437 21.07300781 0.04109375 21.06398437 -0.9921875 21.0546875 C-1.76304687 21.04308594 -2.53390625 21.03148437 -3.328125 21.01953125 C-3.35700646 17.70704938 -3.37488299 14.39459958 -3.390625 11.08203125 C-3.39900391 10.13650391 -3.40738281 9.19097656 -3.41601562 8.21679688 C-3.41923828 7.31767578 -3.42246094 6.41855469 -3.42578125 5.4921875 C-3.43101807 4.65953369 -3.43625488 3.82687988 -3.44165039 2.96899414 C-3.27334284 0.07880959 -2.90075862 0.02433522 0 0 Z M0.671875 4.01953125 C0.341875 8.30953125 0.011875 12.59953125 -0.328125 17.01953125 C4.69858547 17.45029706 4.69858547 17.45029706 9.109375 15.33203125 C10.81854559 13.12356398 10.81854559 13.12356398 11.171875 10.51953125 C10.49784724 7.14939246 9.4630875 6.00276118 6.671875 4.01953125 C4.691875 4.01953125 2.711875 4.01953125 0.671875 4.01953125 Z " fill="#7F9EC5" transform="translate(446.328125,124.98046875)"/>
<path d="M0 0 C4.63030166 4.26475153 6.81529581 7.14860425 7.22705078 13.50512695 C7.21657715 14.81956787 7.20610352 16.13400879 7.1953125 17.48828125 C7.1924826 18.19147995 7.18965271 18.89467865 7.18673706 19.6191864 C7.17560151 21.85046892 7.15050997 24.08134017 7.125 26.3125 C7.1149616 27.83137438 7.10583726 29.3502551 7.09765625 30.86914062 C7.07568413 34.57955921 7.04120047 38.28973942 7 42 C6.67 42 6.34 42 6 42 C5.98018066 41.1121582 5.96036133 40.22431641 5.93994141 39.30957031 C5.86171768 36.00688666 5.77502115 32.70464936 5.68261719 29.40234375 C5.64439976 27.97469602 5.60953428 26.54695437 5.578125 25.11914062 C5.53231599 23.06346132 5.4743502 21.00842446 5.4140625 18.953125 C5.36693115 17.09929199 5.36693115 17.09929199 5.31884766 15.20800781 C5.02317999 12.23321983 4.55972669 10.50650816 3 8 C2.67 8.66 2.34 9.32 2 10 C0.68 10 -0.64 10 -2 10 C-1.814375 11.093125 -1.62875 12.18625 -1.4375 13.3125 C-1 17 -1 17 -2 20 C-5.40457976 22.44805497 -8.67003768 22.20659925 -12.75 22.125 C-13.92046875 22.10695313 -15.0909375 22.08890625 -16.296875 22.0703125 C-17.18890625 22.04710938 -18.0809375 22.02390625 -19 22 C-19 21.67 -19 21.34 -19 21 C-17.35 20.67 -15.7 20.34 -14 20 C-14 19.34 -14 18.68 -14 18 C-13.34 18 -12.68 18 -12 18 C-12 17.34 -12 16.68 -12 16 C-15.3 15.67 -18.6 15.34 -22 15 C-22 14.67 -22 14.34 -22 14 C-19.72923158 13.97300275 -17.45837179 13.95360547 -15.1875 13.9375 C-13.92292969 13.92589844 -12.65835937 13.91429687 -11.35546875 13.90234375 C-8 14 -8 14 -5 15 C-5.33 12.69 -5.66 10.38 -6 8 C-6.99 7.67 -7.98 7.34 -9 7 C-7.125 6.375 -7.125 6.375 -5 6 C-4.34 6.66 -3.68 7.32 -3 8 C-2.01 5.36 -1.02 2.72 0 0 Z " fill="#739EC8" transform="translate(513,36)"/>
<path d="M0 0 C0.73605469 0.01353516 1.47210938 0.02707031 2.23046875 0.04101562 C4.02896743 0.07605131 5.82708422 0.12984712 7.625 0.1875 C6.635 0.5175 5.645 0.8475 4.625 1.1875 C4.625 1.8475 4.625 2.5075 4.625 3.1875 C3.965 3.1875 3.305 3.1875 2.625 3.1875 C2.625 3.8475 2.625 4.5075 2.625 5.1875 C4.935 5.1875 7.245 5.1875 9.625 5.1875 C9.625 5.5175 9.625 5.8475 9.625 6.1875 C8.39523437 6.26097656 8.39523437 6.26097656 7.140625 6.3359375 C6.06296875 6.41070312 4.9853125 6.48546875 3.875 6.5625 C2.27398437 6.66691406 2.27398437 6.66691406 0.640625 6.7734375 C-2.19069056 7.16219326 -3.92967149 7.78200744 -6.375 9.1875 C-7.375 9.1875 -8.375 9.1875 -9.375 9.1875 C-9.705 8.8575 -10.035 8.5275 -10.375 8.1875 C-14.55348497 12.37715788 -14.55348497 12.37715788 -15.6875 18.0625 C-15.584375 19.09375 -15.48125 20.125 -15.375 21.1875 C-16.035 21.1875 -16.695 21.1875 -17.375 21.1875 C-19.11773088 17.70203824 -18.81782275 13.9982704 -18.375 10.1875 C-17.07824221 6.31204673 -15.24100113 3.74292632 -11.75 1.50390625 C-7.63294362 -0.10193634 -4.36042337 -0.15375815 0 0 Z " fill="#1760AB" transform="translate(496.375,50.8125)"/>
<path d="M0 0 C0.99 0.66 1.98 1.32 3 2 C2 5 2 5 0 6 C0 7.32 0 8.64 0 10 C-6.14154225 9.41509121 -12.00679849 8.45933748 -18 7 C-18 7.66 -18 8.32 -18 9 C-18.99 9 -19.98 9 -21 9 C-19.60667426 5.63279613 -18.0210714 4.0140476 -15 2 C-14.34 2.33 -13.68 2.66 -13 3 C-13 2.34 -13 1.68 -13 1 C-13.66 0.67 -14.32 0.34 -15 0 C-9.57735148 -2.50276086 -5.47790185 -1.87813778 0 0 Z " fill="#145CA6" transform="translate(300,33)"/>
<path d="M0 0 C1.79244141 0.01740234 1.79244141 0.01740234 3.62109375 0.03515625 C5.41740234 0.04869141 5.41740234 0.04869141 7.25 0.0625 C8.17683594 0.07410156 9.10367187 0.08570312 10.05859375 0.09765625 C10.38859375 1.41765625 10.71859375 2.73765625 11.05859375 4.09765625 C7.42859375 4.09765625 3.79859375 4.09765625 0.05859375 4.09765625 C0.05859375 5.74765625 0.05859375 7.39765625 0.05859375 9.09765625 C3.35859375 9.09765625 6.65859375 9.09765625 10.05859375 9.09765625 C10.05859375 10.41765625 10.05859375 11.73765625 10.05859375 13.09765625 C6.75859375 13.09765625 3.45859375 13.09765625 0.05859375 13.09765625 C0.05859375 15.73765625 0.05859375 18.37765625 0.05859375 21.09765625 C-1.26140625 21.09765625 -2.58140625 21.09765625 -3.94140625 21.09765625 C-3.97028771 17.78517438 -3.98816424 14.47272458 -4.00390625 11.16015625 C-4.01228516 10.21462891 -4.02066406 9.26910156 -4.02929688 8.29492188 C-4.03251953 7.39580078 -4.03574219 6.49667969 -4.0390625 5.5703125 C-4.04429932 4.73765869 -4.04953613 3.90500488 -4.05493164 3.04711914 C-3.86784489 -0.16554252 -3.26672345 0.10845695 0 0 Z " fill="#B3C5DF" transform="translate(382.94140625,124.90234375)"/>
<path d="M0 0 C-0.66 0 -1.32 0 -2 0 C-1.67 2.31 -1.34 4.62 -1 7 C-2.32 7 -3.64 7 -5 7 C-5 7.66 -5 8.32 -5 9 C-3.02 9 -1.04 9 1 9 C0.2575 9.556875 -0.485 10.11375 -1.25 10.6875 C-5.51014602 14.26989552 -8.19000776 17.72085596 -10 23 C-10.33 22.34 -10.66 21.68 -11 21 C-11.66 21 -12.32 21 -13 21 C-12.67 19.68 -12.34 18.36 -12 17 C-11.01 17 -10.02 17 -9 17 C-9.33 16.01 -9.66 15.02 -10 14 C-10 13.34 -10 12.68 -10 12 C-12.39068734 10.89363605 -12.39068734 10.89363605 -15 10 C-15.99 10.495 -15.99 10.495 -17 11 C-14.63123266 5.60901226 -10.40367005 2.25646389 -5.25 -0.4375 C-3 -1 -3 -1 0 0 Z " fill="#2969AB" transform="translate(178,19)"/>
<path d="M0 0 C5.70629354 0.42797202 9.41078616 2.84345952 14 6 C12.68775452 9.93673644 11.08089673 12.22719294 8 15 C7.34 14.731875 6.68 14.46375 6 14.1875 C2.35060933 12.74294953 -1.32245433 11.37128822 -5 10 C-4.01 9.67 -3.02 9.34 -2 9 C-1.67 8.01 -1.34 7.02 -1 6 C-0.34 6 0.32 6 1 6 C0.67 4.02 0.34 2.04 0 0 Z " fill="#155FA8" transform="translate(106,18)"/>
<path d="M0 0 C0 0.33 0 0.66 0 1 C-6.435 1.495 -6.435 1.495 -13 2 C-12.67 3.32 -12.34 4.64 -12 6 C-7.71 6.33 -3.42 6.66 1 7 C1 7.33 1 7.66 1 8 C0.09636719 8.06058594 -0.80726563 8.12117188 -1.73828125 8.18359375 C-2.91777344 8.26738281 -4.09726563 8.35117187 -5.3125 8.4375 C-7.07013672 8.55931641 -7.07013672 8.55931641 -8.86328125 8.68359375 C-12.02590958 8.8867371 -12.02590958 8.8867371 -15 10 C-15.33 12.31 -15.66 14.62 -16 17 C-16.33 17 -16.66 17 -17 17 C-17.33 14.69 -17.66 12.38 -18 10 C-19.98 9.34 -21.96 8.68 -24 8 C-24.33 11.96 -24.66 15.92 -25 20 C-25.66 20 -26.32 20 -27 20 C-27.34837852 15.10334634 -27.52012314 11.17027707 -25.5 6.625 C-18.18064073 -1.06032723 -9.96456205 -0.46708885 0 0 Z " fill="#5E8EC2" transform="translate(242,50)"/>
<path d="M0 0 C3.58457283 -0.42171445 5.02895505 0.01614801 8.25 1.8125 C11 4 11 4 12 7 C10.890625 8.82421875 10.890625 8.82421875 9.25 10.6875 C8.71890625 11.31011719 8.1878125 11.93273438 7.640625 12.57421875 C6 14 6 14 3 14 C3 13.34 3 12.68 3 12 C1.02 11.34 -0.96 10.68 -3 10 C-3 6 -3 6 -1 4 C-0.3574765 1.93125966 -0.3574765 1.93125966 0 0 Z " fill="#2566AA" transform="translate(198,20)"/>
<path d="M0 0 C2.375 -0.125 2.375 -0.125 5 0 C7 2 7 2 7.375 5.375 C8.06288198 9.3647155 8.91645726 10.51327198 12 13 C9.11604263 14.44197868 6.17569521 14.58833581 3 15 C3 15.99 3 16.98 3 18 C2.34 18 1.68 18 1 18 C1 17.34 1 16.68 1 16 C0.34 16 -0.32 16 -1 16 C-2.00273157 12.7822793 -1.99373398 10.2135374 -1.625 6.875 C-1.53476563 6.00617188 -1.44453125 5.13734375 -1.3515625 4.2421875 C-1 2 -1 2 0 0 Z " fill="#135DA8" transform="translate(218,58)"/>
<path d="M0 0 C0.99 0 1.98 0 3 0 C3 1.32 3 2.64 3 4 C3.763125 3.9175 4.52625 3.835 5.3125 3.75 C8 4 8 4 9.875 5.625 C11.39781243 8.83982625 11.02316469 10.63817316 10 14 C7 16 7 16 3.875 15.6875 C1 15 1 15 0 14 C-0.07271741 11.64686445 -0.08370868 9.29166332 -0.0625 6.9375 C-0.05347656 5.64714844 -0.04445312 4.35679687 -0.03515625 3.02734375 C-0.02355469 2.02832031 -0.01195312 1.02929688 0 0 Z " fill="#7A93B6" transform="translate(211,128)"/>
<path d="M0 0 C4.95 0 9.9 0 15 0 C16.20272819 2.40545638 16.10071472 3.94996953 16.0625 6.625 C16.05347656 7.44226563 16.04445312 8.25953125 16.03515625 9.1015625 C16.02355469 9.72804687 16.01195312 10.35453125 16 11 C15.01 10.67 14.02 10.34 13 10 C13 7.69 13 5.38 13 3 C12.01 3 11.02 3 10 3 C10 5.31 10 7.62 10 10 C9.01 10.33 8.02 10.66 7 11 C6.67 8.69 6.34 6.38 6 4 C5.01 3.67 4.02 3.34 3 3 C3 5.64 3 8.28 3 11 C1.68 10.67 0.36 10.34 -1 10 C-1.125 2.25 -1.125 2.25 0 0 Z " fill="#95A4C0" transform="translate(192,132)"/>
<path d="M0 0 C3.96 0 7.92 0 12 0 C12 3.3 12 6.6 12 10 C8.04 10 4.08 10 0 10 C0 6.7 0 3.4 0 0 Z " fill="#3670B0" transform="translate(374,16)"/>
<path d="M0 0 C2.97 1.98 5.94 3.96 9 6 C8.01 7.485 8.01 7.485 7 9 C7.33 9.99 7.66 10.98 8 12 C7.34 12.66 6.68 13.32 6 14 C8.475 14.495 8.475 14.495 11 15 C11 15.33 11 15.66 11 16 C1.81848219 15.58360463 -3.76884314 12.79762567 -10 6 C-9.67 5.34 -9.34 4.68 -9 4 C-6.5 5.3125 -6.5 5.3125 -4 7 C-4 7.99 -4 8.98 -4 10 C-3.34 9.67 -2.68 9.34 -2 9 C-2.33 8.01 -2.66 7.02 -3 6 C-1.35 6 0.3 6 2 6 C1.34 4.02 0.68 2.04 0 0 Z " fill="#3A75B1" transform="translate(329,64)"/>
<path d="M0 0 C3.33333333 0 6.66666667 0 10 0 C11.2375 -0.0928125 11.2375 -0.0928125 12.5 -0.1875 C13.325 -0.125625 14.15 -0.06375 15 0 C17.67927341 4.01891012 17.15601248 6.24161923 17 11 C16.01 11 15.02 11 14 11 C14 8.36 14 5.72 14 3 C12.68 3 11.36 3 10 3 C10 5.64 10 8.28 10 11 C9.01 11 8.02 11 7 11 C7 8.36 7 5.72 7 3 C6.01 3.33 5.02 3.66 4 4 C3.67 6.31 3.34 8.62 3 11 C2.01 11 1.02 11 0 11 C0 7.37 0 3.74 0 0 Z " fill="#ACB9D3" transform="translate(161,132)"/>
<path d="M0 0 C1.66611905 -0.042721 3.33382885 -0.04063832 5 0 C6 1 6 1 6.11352539 2.85766602 C6.10828857 3.64842529 6.10305176 4.43918457 6.09765625 5.25390625 C6.09443359 6.10791016 6.09121094 6.96191406 6.08789062 7.84179688 C6.07951172 8.73962891 6.07113281 9.63746094 6.0625 10.5625 C6.05798828 11.46419922 6.05347656 12.36589844 6.04882812 13.29492188 C6.03700225 15.53001314 6.0205222 17.76497437 6 20 C1.125 19.125 1.125 19.125 0 18 C-0.08631874 16.65732587 -0.10706473 15.31025678 -0.09765625 13.96484375 C-0.09443359 13.15595703 -0.09121094 12.34707031 -0.08789062 11.51367188 C-0.07951172 10.66353516 -0.07113281 9.81339844 -0.0625 8.9375 C-0.05798828 8.08349609 -0.05347656 7.22949219 -0.04882812 6.34960938 C-0.03700373 4.23304337 -0.01906769 2.11651315 0 0 Z " fill="#7798C3" transform="translate(343,126)"/>
<path d="M0 0 C7.71484375 -0.09765625 7.71484375 -0.09765625 10 0 C11 1 11 1 11.0625 3.5625 C11.041875 4.366875 11.02125 5.17125 11 6 C8.69 5.67 6.38 5.34 4 5 C4 8.63 4 12.26 4 16 C4.66 16 5.32 16 6 16 C6 16.66 6 17.32 6 18 C4.02 18 2.04 18 0 18 C0 12.06 0 6.12 0 0 Z " fill="#2B6CAF" transform="translate(355,126)"/>
<path d="M0 0 C0.33 0 0.66 0 1 0 C1 14.85 1 29.7 1 45 C3.64 45 6.28 45 9 45 C8.97643433 43.94087402 8.97643433 43.94087402 8.95239258 42.86035156 C8.88997903 39.65698271 8.85098889 36.45374188 8.8125 33.25 C8.78736328 32.13882813 8.76222656 31.02765625 8.73632812 29.8828125 C8.72666016 28.81289063 8.71699219 27.74296875 8.70703125 26.640625 C8.68346558 25.16384277 8.68346558 25.16384277 8.65942383 23.65722656 C9.05034818 20.60717591 9.96842944 19.25886277 12 17 C11.88201056 20.96952899 11.75778201 24.93880781 11.62768555 28.90795898 C11.58428777 30.25914147 11.5426163 31.61038053 11.50268555 32.96166992 C11.44510048 34.90036701 11.38085702 36.83886276 11.31640625 38.77734375 C11.26141968 40.52905884 11.26141968 40.52905884 11.20532227 42.31616211 C11 45 11 45 10 46 C6.7 46 3.4 46 0 46 C0 30.82 0 15.64 0 0 Z " fill="#819EC1" transform="translate(530,33)"/>
<path d="M0 0 C5.94 0 11.88 0 18 0 C18.33 0.99 18.66 1.98 19 3 C20.31328657 4.35308313 21.64499081 5.68870078 23 7 C23 7.33 23 7.66 23 8 C15.41 8 7.82 8 0 8 C0.33 7.34 0.66 6.68 1 6 C3.50390625 5.5859375 3.50390625 5.5859375 6.5625 5.375 C7.57441406 5.30023438 8.58632813 5.22546875 9.62890625 5.1484375 C10.41136719 5.09945312 11.19382812 5.05046875 12 5 C12 4.01 12 3.02 12 2 C8.04 2 4.08 2 0 2 C0 1.34 0 0.68 0 0 Z " fill="#054B9E" transform="translate(433,44)"/>
<path d="M0 0 C2.37507855 -0.02719556 4.74983964 -0.04693247 7.125 -0.0625 C8.12273437 -0.07506836 8.12273437 -0.07506836 9.140625 -0.08789062 C13.20681354 -0.10782292 17.0120092 0.21109839 21 1 C20.34 3.31 19.68 5.62 19 8 C12.07 8 5.14 8 -2 8 C-2 7.67 -2 7.34 -2 7 C1.3 7 4.6 7 8 7 C8 6.34 8 5.68 8 5 C8.66 5 9.32 5 10 5 C10 4.34 10 3.68 10 3 C8.68 3 7.36 3 6 3 C6 2.34 6 1.68 6 1 C4.02 1 2.04 1 0 1 C0 0.67 0 0.34 0 0 Z " fill="#044E97" transform="translate(435,19)"/>
<path d="M0 0 C8.58 0 17.16 0 26 0 C26.85052564 5.9536795 27.16687407 11.17901337 27 17.125 C27.00644531 18.00542969 27.01289062 18.88585937 27.01953125 19.79296875 C26.81885875 26.12848627 26.81885875 26.12848627 24.375 28.72949219 C22.4375 30.1171875 22.4375 30.1171875 19 32 C18.34 31.67 17.68 31.34 17 31 C17.33 30.01 17.66 29.02 18 28 C19.32 28 20.64 28 22 28 C22 27.34 22 26.68 22 26 C22.99 26 23.98 26 25 26 C25 17.75 25 9.5 25 1 C17.08 1 9.16 1 1 1 C1 3.64 1 6.28 1 9 C5.95 9 10.9 9 16 9 C16 13.29 16 17.58 16 22 C15.34 21.67 14.68 21.34 14 21 C14.33 17.37 14.66 13.74 15 10 C10.05 10 5.1 10 0 10 C0 6.7 0 3.4 0 0 Z " fill="#C5D6EB" transform="translate(96,44)"/>
<path d="M0 0 C2 3 2 3 1.875 5.875 C0.88065521 9.42623139 -0.48557226 11.3331827 -3 14 C-6.22481079 15.6124054 -9.51415624 15.60679502 -13 15 C-15.39446415 13.56130936 -17.00202012 11.99797988 -19 10 C-18.67 9.34 -18.34 8.68 -18 8 C-17.34 8.33 -16.68 8.66 -16 9 C-15.67 8.01 -15.34 7.02 -15 6 C-14.34 7.32 -13.68 8.64 -13 10 C-9.62599422 10.41725678 -9.62599422 10.41725678 -6 10 C-3.6912133 7.22945596 -2.65295114 4.52593616 -2 1 C-2 1.66 -2 2.32 -2 3 C-1.34 3 -0.68 3 0 3 C0 2.01 0 1.02 0 0 Z " fill="#688EBA" transform="translate(415,131)"/>
<path d="M0 0 C5.61 0 11.22 0 17 0 C17.33 1.65 17.66 3.3 18 5 C18.99 5 19.98 5 21 5 C21 5.66 21 6.32 21 7 C14.73 6.67 8.46 6.34 2 6 C1.34 4.02 0.68 2.04 0 0 Z " fill="#0F5399" transform="translate(228,51)"/>
<path d="M0 0 C0.33 0.66 0.66 1.32 1 2 C-3.95 2.33 -8.9 2.66 -14 3 C-14.66 4.65 -15.32 6.3 -16 8 C-16.33 8.66 -16.66 9.32 -17 10 C-16.34 10.33 -15.68 10.66 -15 11 C-16.98 11.33 -18.96 11.66 -21 12 C-22.625 8.6875 -22.625 8.6875 -24 5 C-21.74858881 1.62288322 -20.49241809 1.20293072 -16.640625 0.33984375 C-11.12345603 -0.3702061 -5.55013563 -0.14031242 0 0 Z " fill="#4B78AE" transform="translate(506,32)"/>
<path d="M0 0 C2 2 2 2 2.375 5.4375 C2 9 2 9 0.3125 11.0625 C-2 12 -2 12 -4.6875 11.25 C-7 10 -7 10 -8 9 C-8.45875252 3.72434608 -8.45875252 3.72434608 -6.8125 1.125 C-4.38241919 -0.38332602 -2.80984248 -0.36023622 0 0 Z " fill="#8498B8" transform="translate(255,132)"/>
<path d="M0 0 C3 2 3 2 4.0625 5.3125 C4 9 4 9 2.71875 10.5703125 C1.0625 11.9375 1.0625 11.9375 -2 14 C-2.99 13.01 -3.98 12.02 -5 11 C-5.99 11.495 -5.99 11.495 -7 12 C-6.67 8.7 -6.34 5.4 -6 2 C-3.1875 0.875 -3.1875 0.875 0 0 Z " fill="#0353A4" transform="translate(55,34)"/>
<path d="M0 0 C1 3 1 3 0 10 C5.28 10 10.56 10 16 10 C12.69756694 13.30243306 8.55028914 12.64997776 4 13 C8.95 13.33 13.9 13.66 19 14 C19 14.33 19 14.66 19 15 C14.71 15 10.42 15 6 15 C6 15.99 6 16.98 6 18 C4.35 18 2.7 18 1 18 C1 17.34 1 16.68 1 16 C0.01 16 -0.98 16 -2 16 C-2 15.34 -2 14.68 -2 14 C-2.99 14 -3.98 14 -5 14 C-5 13.34 -5 12.68 -5 12 C-5.66 12 -6.32 12 -7 12 C-7 11.34 -7 10.68 -7 10 C-5.68 10 -4.36 10 -3 10 C-3 10.66 -3 11.32 -3 12 C-2.34 11.67 -1.68 11.34 -1 11 C-1.01160156 10.37351563 -1.02320313 9.74703125 -1.03515625 9.1015625 C-1.04417969 8.28429687 -1.05320312 7.46703125 -1.0625 6.625 C-1.07410156 5.81289062 -1.08570313 5.00078125 -1.09765625 4.1640625 C-1 2 -1 2 0 0 Z " fill="#EBF7E7" transform="translate(286,128)"/>
<path d="M0 0 C2.375 0.75 2.375 0.75 3.375 1.75 C3.74586093 7.5910596 3.74586093 7.5910596 3.375 9.75 C0.375 11.75 0.375 11.75 -1.6875 11.5 C-3.625 10.75 -3.625 10.75 -5.625 8.75 C-5.96161952 5.5857765 -6.12443411 3.56486618 -4.4375 0.8125 C-2.625 -0.25 -2.625 -0.25 0 0 Z " fill="#6478A2" transform="translate(185.625,132.25)"/>
<path d="M0 0 C0.66 0 1.32 0 2 0 C2.05404449 2.75026417 2.09369306 5.49946203 2.125 8.25 C2.15013672 9.41595703 2.15013672 9.41595703 2.17578125 10.60546875 C2.23662606 17.72431144 2.23662606 17.72431144 0 21 C-0.33 18.69 -0.66 16.38 -1 14 C-2.65 14 -4.3 14 -6 14 C-5.67 13.01 -5.34 12.02 -5 11 C-5.66 10.34 -6.32 9.68 -7 9 C-5.71937515 7.2925002 -4.38232443 5.62626404 -3 4 C-2.34 4 -1.68 4 -1 4 C-0.67 2.68 -0.34 1.36 0 0 Z " fill="#3E77B2" transform="translate(332,122)"/>
<path d="M0 0 C2.15691531 4.31383062 2.24579622 6.39391899 2.23046875 11.13671875 C2.22978142 12.15678764 2.22978142 12.15678764 2.2290802 13.19746399 C2.22606848 14.6288122 2.21821459 16.06015745 2.20581055 17.49145508 C2.18747595 19.69038388 2.18530153 21.88889312 2.18554688 24.08789062 C2.14753687 34.85246313 2.14753687 34.85246313 1 36 C-0.51928038 36.07179964 -2.04167482 36.08392007 -3.5625 36.0625 C-4.38878906 36.05347656 -5.21507812 36.04445312 -6.06640625 36.03515625 C-6.70449219 36.02355469 -7.34257812 36.01195312 -8 36 C-8 35.34 -8 34.68 -8 34 C-5.36 34 -2.72 34 0 34 C0 22.78 0 11.56 0 0 Z " fill="#80A0C3" transform="translate(255,43)"/>
<path d="M0 0 C1.33454536 2.1980747 2.02787435 3.52613603 1.875 6.125 C0.67449844 8.69750334 -0.35121257 9.00342651 -3 10 C-6.234375 10.1953125 -6.234375 10.1953125 -9.75 10.125 C-10.92046875 10.10695313 -12.0909375 10.08890625 -13.296875 10.0703125 C-14.63492187 10.03550781 -14.63492187 10.03550781 -16 10 C-16 9.67 -16 9.34 -16 9 C-14.35 8.67 -12.7 8.34 -11 8 C-11 7.34 -11 6.68 -11 6 C-10.34 6 -9.68 6 -9 6 C-9 5.34 -9 4.68 -9 4 C-12.3 3.67 -15.6 3.34 -19 3 C-19 2.67 -19 2.34 -19 2 C-16.77110504 1.94571027 -14.54182529 1.90707662 -12.3125 1.875 C-10.45044922 1.84019531 -10.45044922 1.84019531 -8.55078125 1.8046875 C-5.18762143 1.98967979 -3.0014413 2.54232105 0 4 C0 2.68 0 1.36 0 0 Z " fill="#548AC0" transform="translate(510,48)"/>
<path d="M0 0 C0.66 0 1.32 0 2 0 C2 5.94 2 11.88 2 18 C3.98 18 5.96 18 8 18 C8 17.34 8 16.68 8 16 C7.34 16 6.68 16 6 16 C6 15.34 6 14.68 6 14 C7.98 14 9.96 14 12 14 C12.66 15.65 13.32 17.3 14 19 C11.37670316 20.31164842 9.36301375 20.13262846 6.4375 20.125 C5.44621094 20.12757813 4.45492188 20.13015625 3.43359375 20.1328125 C1 20 1 20 0 19 C-0.08651611 17.58429877 -0.10704904 16.164405 -0.09765625 14.74609375 C-0.09443359 13.89208984 -0.09121094 13.03808594 -0.08789062 12.15820312 C-0.07951172 11.26037109 -0.07113281 10.36253906 -0.0625 9.4375 C-0.05798828 8.53580078 -0.05347656 7.63410156 -0.04882812 6.70507812 C-0.03700225 4.46998686 -0.0205222 2.23502563 0 0 Z " fill="#8BA3BF" transform="translate(353,126)"/>
<path d="M0 0 C0.5775 0.226875 1.155 0.45375 1.75 0.6875 C1.585 1.368125 1.42 2.04875 1.25 2.75 C0.67910941 6.1039822 0.68340977 9.29139805 0.75 12.6875 C0.42 11.3675 0.09 10.0475 -0.25 8.6875 C-0.91 8.6875 -1.57 8.6875 -2.25 8.6875 C-2.25 9.3475 -2.25 10.0075 -2.25 10.6875 C-8 13.6875 -8 13.6875 -10.25 13.6875 C-10.25 12.6975 -10.25 11.7075 -10.25 10.6875 C-9.59 10.048125 -8.93 9.40875 -8.25 8.75 C-5.78590278 6.68772661 -5.78590278 6.68772661 -6.25 2.6875 C-4.0985146 0.45917583 -3.1311405 -0.43488062 0 0 Z " fill="#3B77B2" transform="translate(593.25,65.3125)"/>
<path d="M0 0 C1.37478516 0.01740234 1.37478516 0.01740234 2.77734375 0.03515625 C3.69644531 0.04417969 4.61554688 0.05320312 5.5625 0.0625 C6.27277344 0.07410156 6.98304688 0.08570313 7.71484375 0.09765625 C7.71484375 1.41765625 7.71484375 2.73765625 7.71484375 4.09765625 C4.74484375 3.76765625 1.77484375 3.43765625 -1.28515625 3.09765625 C-1.28515625 10.35765625 -1.28515625 17.61765625 -1.28515625 25.09765625 C-2.27515625 24.43765625 -3.26515625 23.77765625 -4.28515625 23.09765625 C-4.54980469 20.86694336 -4.54980469 20.86694336 -4.39453125 18.125 C-4.34425781 17.14337891 -4.29398437 16.16175781 -4.2421875 15.15039062 C-4.17386719 14.12236328 -4.10554688 13.09433594 -4.03515625 12.03515625 C-3.98230469 11.00326172 -3.92945313 9.97136719 -3.875 8.90820312 C-3.3794805 0.14442224 -3.3794805 0.14442224 0 0 Z " fill="#7192C1" transform="translate(355.28515625,14.90234375)"/>
<path d="M0 0 C0.48726563 0.28875 0.97453125 0.5775 1.4765625 0.875 C8.57917582 4.59418661 15.11880188 4.40358909 23 4 C19.34540533 6.43639644 16.64952517 6.22860705 12.4375 6.125 C11.40979492 6.11146484 11.40979492 6.11146484 10.36132812 6.09765625 C8.57409098 6.07310147 6.78701715 6.03727266 5 6 C4.34 6 3.68 6 3 6 C2.7525 6.61875 2.505 7.2375 2.25 7.875 C0.79371361 10.35068687 -0.37812506 10.95125002 -3 12 C-3.99 11.34 -4.98 10.68 -6 10 C-6 8 -6 8 -4.125 5.875 C-2 4 -2 4 0 4 C0 2.68 0 1.36 0 0 Z " fill="#5283B8" transform="translate(83,64)"/>
<path d="M0 0 C2.4375 1 2.4375 1 3.75 3.5625 C4.0903125 4.7690625 4.0903125 4.7690625 4.4375 6 C2.1275 6 -0.1825 6 -2.5625 6 C-2.2325 6.66 -1.9025 7.32 -1.5625 8 C0.0875 7.67 1.7375 7.34 3.4375 7 C3.1075 8.32 2.7775 9.64 2.4375 11 C0.6875 11.75 0.6875 11.75 -1.5625 12 C-4.32057369 10.00805789 -5.42247448 8.82014946 -6 5.4375 C-5.5625 3 -5.5625 3 -4.375 1.125 C-2.5625 0 -2.5625 0 0 0 Z " fill="#9BAFCC" transform="translate(228.5625,132)"/>
<path d="M0 0 C0.66 0.66 1.32 1.32 2 2 C4.58354218 2.16687448 4.58354218 2.16687448 7 2 C8.125 8.75 8.125 8.75 7 11 C5.35 10.67 3.7 10.34 2 10 C2 11.65 2 13.3 2 15 C1.01 15.495 1.01 15.495 0 16 C-0.71033431 10.47032059 -1.30267176 5.50016964 0 0 Z " fill="#0252A3" transform="translate(459,32)"/>
<path d="M0 0 C0.66 0.33 1.32 0.66 2 1 C1.04608295 7.20046083 1.04608295 7.20046083 -1.7734375 9.35546875 C-5.51013819 11.27938342 -7.69671175 12 -12 12 C-12 11.34 -12 10.68 -12 10 C-13.65 10 -15.3 10 -17 10 C-14.79360635 7.79360635 -13.56473413 7.42684043 -10.625 6.5625 C-7.20326352 5.48599863 -4.7712038 4.32781119 -2 2 C-1.34 2 -0.68 2 0 2 C0 1.34 0 0.68 0 0 Z " fill="#0877BD" transform="translate(323,132)"/>
<path d="M0 0 C2.475 0.495 2.475 0.495 5 1 C4.67 1.99 4.34 2.98 4 4 C3.34 4 2.68 4 2 4 C2.33 13.24 2.66 22.48 3 32 C2.01 32 1.02 32 0 32 C0 21.44 0 10.88 0 0 Z " fill="#4B7BB4" transform="translate(297,46)"/>
<path d="M0 0 C1.32 0.33 2.64 0.66 4 1 C5.45184478 5.53701494 6.23509196 9.18061476 6 14 C5.01 14.495 5.01 14.495 4 15 C3.34 12.69 2.68 10.38 2 8 C-0.31 8.33 -2.62 8.66 -5 9 C-5 10.98 -5 12.96 -5 15 C-5.33 15 -5.66 15 -6 15 C-6.25 11.6875 -6.25 11.6875 -6 8 C-4.125 6.375 -4.125 6.375 -2 5 C-0.73152315 2.41501488 -0.73152315 2.41501488 0 0 Z " fill="#2568AF" transform="translate(54,27)"/>
<path d="M0 0 C1.32 0.33 2.64 0.66 4 1 C4.02693575 3.12493141 4.04636628 5.24995912 4.0625 7.375 C4.07410156 8.55835938 4.08570313 9.74171875 4.09765625 10.9609375 C4 14 4 14 3 16 C5.31 16 7.62 16 10 16 C10 16.66 10 17.32 10 18 C6.7 18 3.4 18 0 18 C0 12.06 0 6.12 0 0 Z " fill="#0D468B" transform="translate(443,127)"/>
<path d="M0 0 C0.33 0.99 0.66 1.98 1 3 C1.66 3 2.32 3 3 3 C2.67 4.98 2.34 6.96 2 9 C1.01 9.33 0.02 9.66 -1 10 C-2.82421875 9.00390625 -2.82421875 9.00390625 -4.6875 7.5625 C-5.31011719 7.08941406 -5.93273437 6.61632813 -6.57421875 6.12890625 C-7.04472656 5.75636719 -7.51523437 5.38382813 -8 5 C-7.625 3.0625 -7.625 3.0625 -7 1 C-4.53721199 -0.231394 -2.7204945 -0.07159196 0 0 Z " fill="#1E62A9" transform="translate(350,36)"/>
<path d="M0 0 C3.3 0.33 6.6 0.66 10 1 C10 1.66 10 2.32 10 3 C11.32 3 12.64 3 14 3 C14.33 3.99 14.66 4.98 15 6 C14 7 14 7 11.05859375 7.09765625 C9.26615234 7.08025391 9.26615234 7.08025391 7.4375 7.0625 C5.64119141 7.04896484 5.64119141 7.04896484 3.80859375 7.03515625 C2.88175781 7.02355469 1.95492187 7.01195312 1 7 C1.33 5.02 1.66 3.04 2 1 C1.34 0.67 0.68 0.34 0 0 Z " fill="#0E5DAA" transform="translate(225,33)"/>
<path d="M0 0 C0.33 3.63 0.66 7.26 1 11 C-1.97 10.67 -4.94 10.34 -8 10 C-7.8125 6.6875 -7.8125 6.6875 -7 3 C-4.58235424 1.07828158 -3.11532786 0 0 0 Z " fill="#0F5AA7" transform="translate(276,68)"/>
<path d="M0 0 C3.96 0 7.92 0 12 0 C12 0.33 12 0.66 12 1 C8.7 1 5.4 1 2 1 C2 3.31 2 5.62 2 8 C5.3 8 8.6 8 12 8 C12 8.66 12 9.32 12 10 C8.7 10 5.4 10 2 10 C2 12.64 2 15.28 2 18 C1.34 18 0.68 18 0 18 C0 12.06 0 6.12 0 0 Z " fill="#0E4080" transform="translate(380,127)"/>
<path d="M0 0 C0.66 0 1.32 0 2 0 C2 0.66 2 1.32 2 2 C3.98 2.66 5.96 3.32 8 4 C8 4.66 8 5.32 8 6 C7.38125 6.103125 6.7625 6.20625 6.125 6.3125 C3.63473516 6.87525373 3.63473516 6.87525373 2 10 C1.43829102 9.5155542 0.87658203 9.0311084 0.29785156 8.53198242 C-2.30507463 6.79660611 -3.67527323 6.58733099 -6.765625 6.48828125 C-8.09980469 6.43510742 -8.09980469 6.43510742 -9.4609375 6.38085938 C-10.38132812 6.35830078 -11.30171875 6.33574219 -12.25 6.3125 C-13.18585938 6.27833984 -14.12171875 6.24417969 -15.0859375 6.20898438 C-17.39050533 6.12667838 -19.69470119 6.0574737 -22 6 C-22 5.67 -22 5.34 -22 5 C-11.605 4.505 -11.605 4.505 -1 4 C-0.67 2.68 -0.34 1.36 0 0 Z " fill="#588CC4" transform="translate(455,22)"/>
<path d="M0 0 C3.96 0 7.92 0 12 0 C10 2 10 2 8.0546875 2.1953125 C6.03645833 2.13020833 4.01822917 2.06510417 2 2 C2.33 3.32 2.66 4.64 3 6 C2.34 6 1.68 6 1 6 C1 6.66 1 7.32 1 8 C3.64 8 6.28 8 9 8 C5.92970153 9.81426728 4.02714249 10.20901169 0.5 9.75 C-0.2528125 9.66234375 -1.005625 9.5746875 -1.78125 9.484375 C-4.1101584 8.97595134 -5.92229716 8.15218067 -8 7 C-8 6.67 -8 6.34 -8 6 C-5.69 5.34 -3.38 4.68 -1 4 C-0.67 2.68 -0.34 1.36 0 0 Z " fill="#779CC2" transform="translate(492,70)"/>
<path d="M0 0 C2 0 2 0 3.625 1.0625 C5.68369484 3.96338818 5.19557733 6.54480057 5 10 C4.67 9.34 4.34 8.68 4 8 C3.05125 8.350625 2.1025 8.70125 1.125 9.0625 C-2 10 -2 10 -4 9 C-4 7.35 -4 5.7 -4 4 C-2.68 3.34 -1.36 2.68 0 2 C0 1.34 0 0.68 0 0 Z " fill="#0254A5" transform="translate(467,55)"/>
<path d="M0 0 C0.33 0.99 0.66 1.98 1 3 C0.67 3.66 0.34 4.32 0 5 C3.63 5.33 7.26 5.66 11 6 C11 6.33 11 6.66 11 7 C6.71 7 2.42 7 -2 7 C-2.33 6.34 -2.66 5.68 -3 5 C-4.98 5.99 -4.98 5.99 -7 7 C-7.33 5.02 -7.66 3.04 -8 1 C-5.29120665 -0.35439668 -2.99066732 -0.06501451 0 0 Z " fill="#074A93" transform="translate(227,34)"/>
<path d="M0 0 C1.65 0.33 3.3 0.66 5 1 C4.01 1.33 3.02 1.66 2 2 C2 2.66 2 3.32 2 4 C2.66 4 3.32 4 4 4 C4 4.66 4 5.32 4 6 C3.34 6 2.68 6 2 6 C2 8.97 2 11.94 2 15 C1.01 15 0.02 15 -1 15 C-1.22304441 13.25181409 -1.4278645 11.50129677 -1.625 9.75 C-1.74101562 8.77546875 -1.85703125 7.8009375 -1.9765625 6.796875 C-2.00112537 3.86570607 -1.5312717 2.45471036 0 0 Z " fill="#94A8C9" transform="translate(261,128)"/>
<path d="M0 0 C4.29 0 8.58 0 13 0 C12.01 0.33 11.02 0.66 10 1 C10 1.66 10 2.32 10 3 C9.34 3 8.68 3 8 3 C8 3.66 8 4.32 8 5 C10.31 5 12.62 5 15 5 C15 5.33 15 5.66 15 6 C10.38 6.33 5.76 6.66 1 7 C1.33 5.68 1.66 4.36 2 3 C2.66 2.67 3.32 2.34 4 2 C4.66 2.33 5.32 2.66 6 3 C6 2.34 6 1.68 6 1 C4.02 1 2.04 1 0 1 C0 0.67 0 0.34 0 0 Z " fill="#0F4A8C" transform="translate(491,51)"/>
<path d="M0 0 C0 1.65 0 3.3 0 5 C1.98 5 3.96 5 6 5 C5.67 5.66 5.34 6.32 5 7 C3.02 7 1.04 7 -1 7 C-1.66 5.35 -2.32 3.7 -3 2 C-3.721875 2.639375 -4.44375 3.27875 -5.1875 3.9375 C-7.98191184 5.98673535 -9.61663274 6.61332946 -13 7 C-12.67 6.01 -12.34 5.02 -12 4 C-10.68 4 -9.36 4 -8 4 C-8 3.34 -8 2.68 -8 2 C-7.34 2 -6.68 2 -6 2 C-6 1.34 -6 0.68 -6 0 C-2.25 -1.125 -2.25 -1.125 0 0 Z " fill="#83A3CA" transform="translate(354,72)"/>
<path d="M0 0 C2.64 0 5.28 0 8 0 C8 1.65 8 3.3 8 5 C1.125 7 1.125 7 0 7 C0 4.69 0 2.38 0 0 Z " fill="#0254A5" transform="translate(354,18)"/>
<path d="M0 0 C0.99 0.33 1.98 0.66 3 1 C3.1953125 7.0546875 3.1953125 7.0546875 3 9 C2.34 9.66 1.68 10.32 1 11 C0.01 11 -0.98 11 -2 11 C-2 10.34 -2 9.68 -2 9 C-2.99 8.67 -3.98 8.34 -5 8 C-4.01 7.34 -3.02 6.68 -2 6 C-0.78715124 2.94570927 -0.78715124 2.94570927 0 0 Z " fill="#034B9A" transform="translate(368,133)"/>
<path d="M0 0 C0.99 0.33 1.98 0.66 3 1 C3 6.61 3 12.22 3 18 C2.01 17.67 1.02 17.34 0 17 C0.66 17 1.32 17 2 17 C1.34 16.01 0.68 15.02 0 14 C-0.1953125 10.64453125 -0.1953125 10.64453125 -0.125 6.8125 C-0.10695313 5.54019531 -0.08890625 4.26789063 -0.0703125 2.95703125 C-0.04710937 1.98121094 -0.02390625 1.00539062 0 0 Z " fill="#044C9B" transform="translate(345,127)"/>
<path d="M0 0 C0.66 0.66 1.32 1.32 2 2 C1.2884375 3.051875 1.2884375 3.051875 0.5625 4.125 C-1.08739857 7.16081337 -1.60368464 9.59168786 -2 13 C-2.99 12.67 -3.98 12.34 -5 12 C-5.83686751 9.0709637 -6.07479299 7.2923726 -5.3125 4.3125 C-3.82814217 1.69720287 -2.7801924 1.01940388 0 0 Z " fill="#406DA8" transform="translate(401,127)"/>
<path d="M0 0 C1.85772162 0.08984301 3.71247985 0.24611861 5.5625 0.4375 C7.08037109 0.59025391 7.08037109 0.59025391 8.62890625 0.74609375 C9.80259766 0.87177734 9.80259766 0.87177734 11 1 C11.33 2.32 11.66 3.64 12 5 C9.03 4.67 6.06 4.34 3 4 C3 6.31 3 8.62 3 11 C2.67 11 2.34 11 2 11 C2.09765625 8.98177083 2.1953125 6.96354167 2.29296875 4.9453125 C2.19628906 4.30335938 2.09960938 3.66140625 2 3 C1.01 2.34 0.02 1.68 -1 1 C-0.67 0.67 -0.34 0.34 0 0 Z " fill="#7190BB" transform="translate(444,125)"/>
<path d="M0 0 C0.33 0 0.66 0 1 0 C2.13889453 5.40085141 2.15249197 10.57680206 2 16.0625 C2.00644531 16.94744141 2.01289062 17.83238281 2.01953125 18.74414062 C1.81842941 25.12672992 1.81842941 25.12672992 -0.625 27.73388672 C-2.5625 29.12109375 -2.5625 29.12109375 -6 31 C-6.66 30.67 -7.32 30.34 -8 30 C-7.505 28.515 -7.505 28.515 -7 27 C-5.68 27 -4.36 27 -3 27 C-3 26.34 -3 25.68 -3 25 C-2.01 25 -1.02 25 0 25 C0 16.75 0 8.5 0 0 Z " fill="#8FA4BC" transform="translate(121,45)"/>
<path d="M0 0 C-0.66 0 -1.32 0 -2 0 C-1.67 2.31 -1.34 4.62 -1 7 C-5.875 6.125 -5.875 6.125 -7 5 C-8.66617115 4.95936168 -10.33388095 4.957279 -12 5 C-8.44416617 1.04907352 -5.38741645 -1.79580548 0 0 Z " fill="#3F79B5" transform="translate(178,19)"/>
<path d="M0 0 C3.63 0 7.26 0 11 0 C9.515 1.98 9.515 1.98 8 4 C8 3.34 8 2.68 8 2 C7.01 2 6.02 2 5 2 C5 2.99 5 3.98 5 5 C5.66 5.33 6.32 5.66 7 6 C4.36 6 1.72 6 -1 6 C-1 5.34 -1 4.68 -1 4 C-0.34 4 0.32 4 1 4 C0.67 2.68 0.34 1.36 0 0 Z " fill="#0250A5" transform="translate(494,72)"/>
<path d="M0 0 C0.99 0 1.98 0 3 0 C3.66 1.32 4.32 2.64 5 4 C3.02 4 1.04 4 -1 4 C-1.33 7.96 -1.66 11.92 -2 16 C-2.66 16 -3.32 16 -4 16 C-4.68797533 6.33012448 -4.68797533 6.33012448 -2.1875 2.375 C-1.465625 1.59125 -0.74375 0.8075 0 0 Z " fill="#5A85B5" transform="translate(219,54)"/>
<path d="M0 0 C1.98 0 3.96 0 6 0 C6 0.99 6 1.98 6 3 C5.01 3.495 5.01 3.495 4 4 C3.59270772 6.32156597 3.25561323 8.6568787 3 11 C2.01 11 1.02 11 0 11 C0 7.37 0 3.74 0 0 Z " fill="#93A6C6" transform="translate(235,132)"/>
<path d="M0 0 C0.99 0 1.98 0 3 0 C3 0.66 3 1.32 3 2 C3.99 2.33 4.98 2.66 6 3 C5.67 3.99 5.34 4.98 5 6 C5.66 6.66 6.32 7.32 7 8 C3.7 8 0.4 8 -3 8 C-3 7.34 -3 6.68 -3 6 C-1.68 6 -0.36 6 1 6 C0.34 4.35 -0.32 2.7 -1 1 C-0.67 0.67 -0.34 0.34 0 0 Z " fill="#145FAD" transform="translate(176,20)"/>
<path d="M0 0 C1.32 0 2.64 0 4 0 C4 0.66 4 1.32 4 2 C4.66 2 5.32 2 6 2 C6 3.32 6 4.64 6 6 C3.36 6 0.72 6 -2 6 C-1.125 1.125 -1.125 1.125 0 0 Z " fill="#68C302" transform="translate(289,132)"/>
<path d="M0 0 C5.75 0.75 5.75 0.75 8 3 C7.34 3 6.68 3 6 3 C6 3.99 6 4.98 6 6 C4.68 6 3.36 6 2 6 C2 6.66 2 7.32 2 8 C-1 10 -1 10 -3.1875 9.625 C-3.785625 9.41875 -4.38375 9.2125 -5 9 C-4.01 9 -3.02 9 -2 9 C-1.67 8.01 -1.34 7.02 -1 6 C-0.34 6 0.32 6 1 6 C0.67 4.02 0.34 2.04 0 0 Z " fill="#2068B2" transform="translate(106,18)"/>
<path d="M0 0 C6.6 0 13.2 0 20 0 C19.01 0.495 19.01 0.495 18 1 C17.67 1.99 17.34 2.98 17 4 C14.03 3.67 11.06 3.34 8 3 C8 2.67 8 2.34 8 2 C5.36 1.67 2.72 1.34 0 1 C0 0.67 0 0.34 0 0 Z " fill="#04377E" transform="translate(433,69)"/>
<path d="M0 0 C2 2 2 2 2.22705078 5.25634766 C2.22673382 6.64229295 2.21541759 8.02826301 2.1953125 9.4140625 C2.1924826 10.14370209 2.18965271 10.87334167 2.18673706 11.62509155 C2.17553002 13.95856028 2.1504251 16.29164703 2.125 18.625 C2.11497085 20.20572363 2.10584489 21.78645327 2.09765625 23.3671875 C2.07558905 27.24493914 2.04105615 31.12240478 2 35 C1.67 35 1.34 35 1 35 C0.98018066 34.0713916 0.96036133 33.1427832 0.93994141 32.18603516 C0.86191387 28.7454948 0.77522538 25.30540109 0.68261719 21.86523438 C0.64430002 20.37541111 0.60945192 18.88549446 0.578125 17.39550781 C0.53253271 15.25551952 0.47453126 13.11617564 0.4140625 10.9765625 C0.3826416 9.68830566 0.3512207 8.40004883 0.31884766 7.07275391 C0.31541732 3.89518495 0.31541732 3.89518495 -2 2 C-1.34 1.34 -0.68 0.68 0 0 Z " fill="#024B9B" transform="translate(305,41)"/>
<path d="M0 0 C2.0622048 -0.054348 4.12482816 -0.09294961 6.1875 -0.125 C7.33605469 -0.14820312 8.48460937 -0.17140625 9.66796875 -0.1953125 C12.91740372 -0.00484152 15.08660521 0.60639873 18 2 C18 2.66 18 3.32 18 4 C17.34 4.66 16.68 5.32 16 6 C15.01 6 14.02 6 13 6 C12.67 4.68 12.34 3.36 12 2 C8.04 1.67 4.08 1.34 0 1 C0 0.67 0 0.34 0 0 Z " fill="#3C73AD" transform="translate(444,18)"/>
<path d="M0 0 C0.99 0 1.98 0 3 0 C2.6875 1.875 2.6875 1.875 2 4 C-1.08888522 6.05925681 -1.70935927 6.2390374 -5.1875 6.125 C-7.0746875 6.063125 -7.0746875 6.063125 -9 6 C-9 5.34 -9 4.68 -9 4 C-8.43410156 3.79503906 -7.86820312 3.59007812 -7.28515625 3.37890625 C-6.55167969 3.10949219 -5.81820313 2.84007812 -5.0625 2.5625 C-4.33160156 2.29566406 -3.60070312 2.02882812 -2.84765625 1.75390625 C-1.01694322 1.14613052 -1.01694322 1.14613052 0 0 Z " fill="#5379AA" transform="translate(434,140)"/>
<path d="M0 0 C0.33 0 0.66 0 1 0 C1.12375 1.11375 1.2475 2.2275 1.375 3.375 C1.6465813 7.03103677 1.6465813 7.03103677 4 9 C5.98821313 9.39764263 7.98944339 9.73775349 10 10 C10 10.33 10 10.66 10 11 C8.56853622 11.41713515 7.12941114 11.8080497 5.6875 12.1875 C4.88699219 12.40792969 4.08648437 12.62835938 3.26171875 12.85546875 C1 13 1 13 -0.84375 11.875 C-2 10 -2 10 -1.85546875 7.51953125 C-1.63503906 6.62621094 -1.41460937 5.73289063 -1.1875 4.8125 C-0.97480469 3.91144531 -0.76210938 3.01039063 -0.54296875 2.08203125 C-0.36378906 1.39496094 -0.18460937 0.70789063 0 0 Z " fill="#88A7CC" transform="translate(422,132)"/>
<path d="M0 0 C5.36363636 0 5.36363636 0 8 1 C8.33 1.99 8.66 2.98 9 4 C6.50907189 5.24546405 5.58919267 4.7767578 3 4 C3 4.66 3 5.32 3 6 C3.66 6.33 4.32 6.66 5 7 C4.01 7.33 3.02 7.66 2 8 C1.67 7.01 1.34 6.02 1 5 C0.34 4.34 -0.32 3.68 -1 3 C-0.67 2.01 -0.34 1.02 0 0 Z " fill="#0255A6" transform="translate(323,66)"/>
<path d="M0 0 C1.64574566 -0.02688151 3.29161413 -0.04634123 4.9375 -0.0625 C5.85402344 -0.07410156 6.77054687 -0.08570312 7.71484375 -0.09765625 C10 0 10 0 11 1 C11.04063832 2.66617115 11.042721 4.33388095 11 6 C8.69 5.34 6.38 4.68 4 4 C4 3.34 4 2.68 4 2 C2.68 2 1.36 2 0 2 C0 1.34 0 0.68 0 0 Z " fill="#0C4292" transform="translate(355,126)"/>
<path d="M0 0 C3.3 0 6.6 0 10 0 C10.33 1.65 10.66 3.3 11 5 C9.68 5.33 8.36 5.66 7 6 C7 5.34 7 4.68 7 4 C6.030625 3.71125 5.06125 3.4225 4.0625 3.125 C1 2 1 2 0 0 Z " fill="#4078B3" transform="translate(194,28)"/>
<path d="M0 0 C0.99 0 1.98 0 3 0 C3.144375 1.093125 3.28875 2.18625 3.4375 3.3125 C3.88288104 6.93122987 3.88288104 6.93122987 5 10 C4.34 10 3.68 10 3 10 C3 9.34 3 8.68 3 8 C2.01 8 1.02 8 0 8 C-0.66 6.35 -1.32 4.7 -2 3 C-1.34 3 -0.68 3 0 3 C0 2.01 0 1.02 0 0 Z " fill="#0353A4" transform="translate(320,42)"/>
<path d="M0 0 C0.78375 0.04125 1.5675 0.0825 2.375 0.125 C2.705 1.115 3.035 2.105 3.375 3.125 C2 4.625 2 4.625 0.375 6.125 C-0.285 6.125 -0.945 6.125 -1.625 6.125 C-1.625 6.785 -1.625 7.445 -1.625 8.125 C-2.945 8.125 -4.265 8.125 -5.625 8.125 C-5.625 7.465 -5.625 6.805 -5.625 6.125 C-4.635 5.795 -3.645 5.465 -2.625 5.125 C-3.285 4.135 -3.945 3.145 -4.625 2.125 C-2.625 0.125 -2.625 0.125 0 0 Z " fill="#0252A4" transform="translate(584.625,69.875)"/>
<path d="M0 0 C1.32 0 2.64 0 4 0 C3.34 2.31 2.68 4.62 2 7 C0.35 6.67 -1.3 6.34 -3 6 C-3 4.68 -3 3.36 -3 2 C-2.01 2 -1.02 2 0 2 C0 1.34 0 0.68 0 0 Z " fill="#0353A5" transform="translate(452,20)"/>
<path d="M0 0 C0.66 0 1.32 0 2 0 C1.67 3.3 1.34 6.6 1 10 C0.01 10.33 -0.98 10.66 -2 11 C-2.92817192 7.37169157 -3.26901295 5.58926645 -1.6875 2.125 C-0.8521875 1.073125 -0.8521875 1.073125 0 0 Z " fill="#3865A1" transform="translate(421,129)"/>
<path d="M0 0 C0 1.65 0 3.3 0 5 C0.66 5.33 1.32 5.66 2 6 C-2 6 -2 6 -5 4 C-7.0179789 3.62152955 -7.0179789 3.62152955 -9.125 3.5 C-10.40375 3.335 -11.6825 3.17 -13 3 C-13.33 2.34 -13.66 1.68 -14 1 C-13.07767578 1.01740234 -13.07767578 1.01740234 -12.13671875 1.03515625 C-10.92435547 1.04869141 -10.92435547 1.04869141 -9.6875 1.0625 C-8.88699219 1.07410156 -8.08648437 1.08570312 -7.26171875 1.09765625 C-4.67983261 0.98617585 -2.57562005 0 0 0 Z " fill="#789DC6" transform="translate(243,69)"/>
<path d="M0 0 C0.69738281 0.01353516 1.39476562 0.02707031 2.11328125 0.04101562 C3.82585541 0.0762055 5.53802941 0.13000845 7.25 0.1875 C7.25 0.5175 7.25 0.8475 7.25 1.1875 C0.815 1.6825 0.815 1.6825 -5.75 2.1875 C-6.08 3.5075 -6.41 4.8275 -6.75 6.1875 C-7.41 6.1875 -8.07 6.1875 -8.75 6.1875 C-8.75 5.5275 -8.75 4.8675 -8.75 4.1875 C-9.74 3.8575 -10.73 3.5275 -11.75 3.1875 C-8.17517469 -0.32283104 -4.73451742 -0.1745238 0 0 Z " fill="#759FCA" transform="translate(234.75,49.8125)"/>
<path d="M0 0 C2.0625 0.4375 2.0625 0.4375 4 1 C4 2.65 4 4.3 4 6 C2.35 6.33 0.7 6.66 -1 7 C-1.04254356 5.00045254 -1.04080783 2.99958364 -1 1 C-0.67 0.67 -0.34 0.34 0 0 Z " fill="#E4F0F7" transform="translate(251,134)"/>
<path d="M0 0 C0.33 0 0.66 0 1 0 C1.125 2.875 1.125 2.875 1 6 C-1 8 -1 8 -4.625 8.125 C-5.73875 8.08375 -6.8525 8.0425 -8 8 C-8 7.34 -8 6.68 -8 6 C-7.05125 5.566875 -6.1025 5.13375 -5.125 4.6875 C-1.79958063 3.20697799 -1.79958063 3.20697799 0 0 Z " fill="#507FB4" transform="translate(47,42)"/>
<path d="M0 0 C5.94 0 11.88 0 18 0 C18 0.33 18 0.66 18 1 C13.71 1 9.42 1 5 1 C5 1.99 5 2.98 5 4 C3.35 4 1.7 4 0 4 C0 2.68 0 1.36 0 0 Z " fill="#6ACBED" transform="translate(287,142)"/>
<path d="M0 0 C2.0625 0.4375 2.0625 0.4375 4 1 C4 2.65 4 4.3 4 6 C2.0625 6.5625 2.0625 6.5625 0 7 C-1 6 -1 6 -1.125 3.5 C-1 1 -1 1 0 0 Z " fill="#E6F3F9" transform="translate(215,134)"/>
<path d="M0 0 C0.33 1.32 0.66 2.64 1 4 C-1.31 4 -3.62 4 -6 4 C-6.33 2.68 -6.66 1.36 -7 0 C-4.3333581 -1.33332095 -2.83319697 -0.67102033 0 0 Z " fill="#9CB1CF" transform="translate(188,133)"/>
<path d="M0 0 C0.33 1.98 0.66 3.96 1 6 C0.01 6.33 -0.98 6.66 -2 7 C-2 6.01 -2 5.02 -2 4 C-3.32 3.67 -4.64 3.34 -6 3 C-6 2.01 -6 1.02 -6 0 C-3 -1 -3 -1 0 0 Z " fill="#145EA8" transform="translate(465,22)"/>
<path d="M0 0 C2.375 -0.125 2.375 -0.125 5 0 C7 2 7 2 7.125 5.625 C7.08375 6.73875 7.0425 7.8525 7 9 C5.68 9.33 4.36 9.66 3 10 C3.33 7.69 3.66 5.38 4 3 C2.68 2.67 1.36 2.34 0 2 C0 1.34 0 0.68 0 0 Z " fill="#6380AD" transform="translate(250,132)"/>
<path d="M0 0 C0.33 0 0.66 0 1 0 C1 2.97 1 5.94 1 9 C-2.3 9 -5.6 9 -9 9 C-8.67 8.01 -8.34 7.02 -8 6 C-5.36 6 -2.72 6 0 6 C0 4.02 0 2.04 0 0 Z " fill="#3F71AF" transform="translate(22,70)"/>
<path d="M0 0 C3.33333333 0 6.66666667 0 10 0 C10.33 0.99 10.66 1.98 11 3 C9.4375 4.25 9.4375 4.25 7 5 C4.42998985 3.93237266 2.3469597 2.53455057 0 1 C0 0.67 0 0.34 0 0 Z " fill="#4A7AAF" transform="translate(105,28)"/>
<path d="M0 0 C0 0.66 0 1.32 0 2 C0.66 2 1.32 2 2 2 C2.33 2.99 2.66 3.98 3 5 C0.69 5.66 -1.62 6.32 -4 7 C-4 6.01 -4 5.02 -4 4 C-4.66 3.67 -5.32 3.34 -6 3 C-2.25 0 -2.25 0 0 0 Z " fill="#2168AE" transform="translate(53,22)"/>
<path d="M0 0 C0.66 0 1.32 0 2 0 C2.33 0.99 2.66 1.98 3 3 C1.3125 4.5625 1.3125 4.5625 -1 6 C-3.75 5.6875 -3.75 5.6875 -6 5 C-6 4.01 -6 3.02 -6 2 C-4.7934375 1.7834375 -4.7934375 1.7834375 -3.5625 1.5625 C-1.07896294 1.25864751 -1.07896294 1.25864751 0 0 Z " fill="#326EAD" transform="translate(505,72)"/>
<path d="M0 0 C0.99 1.485 0.99 1.485 2 3 C2.94875 2.484375 3.8975 1.96875 4.875 1.4375 C5.90625 0.963125 6.9375 0.48875 8 0 C8.66 0.33 9.32 0.66 10 1 C10 1.66 10 2.32 10 3 C9.1028125 3.1546875 9.1028125 3.1546875 8.1875 3.3125 C5.71756736 4.08876455 4.67748765 5.07088921 3 7 C2.01 6.67 1.02 6.34 0 6 C0 4.02 0 2.04 0 0 Z " fill="#6690C0" transform="translate(277,33)"/>
<path d="M0 0 C0.66 0 1.32 0 2 0 C2 1.32 2 2.64 2 4 C2.66 4 3.32 4 4 4 C4 4.66 4 5.32 4 6 C4.66 6 5.32 6 6 6 C6 6.66 6 7.32 6 8 C4.02 8 2.04 8 0 8 C0 5.36 0 2.72 0 0 Z " fill="#0253A2" transform="translate(355,136)"/>
<path d="M0 0 C2.31459868 1.81817001 2.95377187 2.75615543 3.51171875 5.69921875 C3.56972656 6.68535156 3.62773438 7.67148437 3.6875 8.6875 C3.75324219 9.68136719 3.81898437 10.67523438 3.88671875 11.69921875 C3.92410156 12.45847656 3.96148437 13.21773437 4 14 C3.01 14.495 3.01 14.495 2 15 C1.66223316 13.2508503 1.32996329 11.50063855 1 9.75 C0.814375 8.77546875 0.62875 7.8009375 0.4375 6.796875 C0 4 0 4 0 0 Z " fill="#728DBC" transform="translate(56,27)"/>
<path d="M0 0 C2.81870287 2.81870287 2.7303841 5.09056945 3 9 C2.0625 11.4375 2.0625 11.4375 1 13 C0.67 12.34 0.34 11.68 0 11 C-0.66 11 -1.32 11 -2 11 C-1.67 10.01 -1.34 9.02 -1 8 C-0.67 8.33 -0.34 8.66 0 9 C0 6.03 0 3.06 0 0 Z " fill="#7B9BC2" transform="translate(437,129)"/>
<path d="M0 0 C0.99 0.33 1.98 0.66 3 1 C2.67 1.99 2.34 2.98 2 4 C0.68 4 -0.64 4 -2 4 C-2 4.66 -2 5.32 -2 6 C-3.65 6 -5.3 6 -7 6 C-6.67 5.34 -6.34 4.68 -6 4 C-5.34 4 -4.68 4 -4 4 C-4 3.34 -4 2.68 -4 2 C-2.68 2 -1.36 2 0 2 C0 1.34 0 0.68 0 0 Z " fill="#B3DA89" transform="translate(310,132)"/>
<path d="M0 0 C2.31 0 4.62 0 7 0 C7.33 0.66 7.66 1.32 8 2 C6.35 2 4.7 2 3 2 C3.33 2.99 3.66 3.98 4 5 C2.68 5.33 1.36 5.66 0 6 C0 4.02 0 2.04 0 0 Z " fill="#8ECE4B" transform="translate(312,112)"/>
<path d="M0 0 C0.66 0 1.32 0 2 0 C2 2.97 2 5.94 2 9 C1.01 9 0.02 9 -1 9 C-1.09765625 2.84765625 -1.09765625 2.84765625 -1 1 C-0.67 0.67 -0.34 0.34 0 0 Z " fill="#6385AB" transform="translate(193,134)"/>
<path d="M0 0 C3.875 1.875 3.875 1.875 5 3 C5.04063832 4.66617115 5.042721 6.33388095 5 8 C4.34 8 3.68 8 3 8 C3 7.34 3 6.68 3 6 C1.68 5.34 0.36 4.68 -1 4 C-0.34 3.67 0.32 3.34 1 3 C0.67 2.01 0.34 1.02 0 0 Z " fill="#6087BC" transform="translate(410,126)"/>
<path d="M0 0 C0.66 0 1.32 0 2 0 C2.69289369 3.72430357 3.11144596 7.21083746 3 11 C2.34 11 1.68 11 1 11 C-0.20272819 8.59454362 -0.10071472 7.05003047 -0.0625 4.375 C-0.05347656 3.55773437 -0.04445313 2.74046875 -0.03515625 1.8984375 C-0.02355469 1.27195313 -0.01195312 0.64546875 0 0 Z " fill="#6D90BE" transform="translate(478,61)"/>
<path d="M0 0 C1.32 0 2.64 0 4 0 C4.33 0.99 4.66 1.98 5 3 C4 4 4 4 1.93359375 4.09765625 C1.10988281 4.08605469 0.28617188 4.07445312 -0.5625 4.0625 C-1.38878906 4.05347656 -2.21507812 4.04445313 -3.06640625 4.03515625 C-3.70449219 4.02355469 -4.34257812 4.01195312 -5 4 C-4.67 3.34 -4.34 2.68 -4 2 C-2.68 2 -1.36 2 0 2 C0 1.34 0 0.68 0 0 Z " fill="#0153A5" transform="translate(235,36)"/>
<path d="M0 0 C0 0.66 0 1.32 0 2 C-0.99 2.495 -0.99 2.495 -2 3 C-2 3.99 -2 4.98 -2 6 C-3.32 6 -4.64 6 -6 6 C-6 5.34 -6 4.68 -6 4 C-7.65 4 -9.3 4 -11 4 C-8.07317918 1.07317918 -4.14037627 0 0 0 Z " fill="#6AB7DD" transform="translate(317,138)"/>
<path d="M0 0 C0.33 0.99 0.66 1.98 1 3 C3.01508358 3.73323796 3.01508358 3.73323796 5 4 C1.91190305 5.76462683 0.76687864 6 -3 6 C-2.42655063 3.13275314 -2.1385485 2.1385485 0 0 Z " fill="#4E7FB1" transform="translate(224,38)"/>
<path d="M0 0 C0.66 0.33 1.32 0.66 2 1 C1.1875 3.4375 1.1875 3.4375 0 6 C-0.99 6.33 -1.98 6.66 -3 7 C-3.99 6.34 -4.98 5.68 -6 5 C-2.25 2 -2.25 2 0 2 C0 1.34 0 0.68 0 0 Z " fill="#71A8D0" transform="translate(323,132)"/>
<path d="M0 0 C2.31 0.33 4.62 0.66 7 1 C7 1.66 7 2.32 7 3 C8.32 3 9.64 3 11 3 C11 3.66 11 4.32 11 5 C7.87709365 4.51421457 5.00419641 4.0013988 2 3 C2 2.34 2 1.68 2 1 C1.34 0.67 0.68 0.34 0 0 Z " fill="#6188B8" transform="translate(167,73)"/>
<path d="M0 0 C0.99 0 1.98 0 3 0 C1.89300099 3.21029714 0.98396175 4.00968977 -2 5.8125 C-2.99 6.204375 -3.98 6.59625 -5 7 C-5.66 6.67 -6.32 6.34 -7 6 C-6.67 5.34 -6.34 4.68 -6 4 C-4.68 4 -3.36 4 -2 4 C-2 3.34 -2 2.68 -2 2 C-1.34 2 -0.68 2 0 2 C0 1.34 0 0.68 0 0 Z " fill="#5880B3" transform="translate(348,72)"/>
<path d="M0 0 C1.32 0 2.64 0 4 0 C4.33 0.66 4.66 1.32 5 2 C5.99 2.33 6.98 2.66 8 3 C8 3.99 8 4.98 8 6 C7.01 6 6.02 6 5 6 C5 5.34 5 4.68 5 4 C4.01 4 3.02 4 2 4 C2 3.34 2 2.68 2 2 C1.34 2 0.68 2 0 2 C0 1.34 0 0.68 0 0 Z " fill="#B5E1EB" transform="translate(279,138)"/>
<path d="M0 0 C0 0.33 0 0.66 0 1 C-1.65 1 -3.3 1 -5 1 C-5.33 1.99 -5.66 2.98 -6 4 C-8.31 3.67 -10.62 3.34 -13 3 C-12.67 2.34 -12.34 1.68 -12 1 C-7.96960118 0.06269795 -4.12580711 -0.0982335 0 0 Z " fill="#B8DD91" transform="translate(312,111)"/>
<path d="M0 0 C0.86625 0.3403125 0.86625 0.3403125 1.75 0.6875 C1.09 2.0075 0.43 3.3275 -0.25 4.6875 C-2.23 4.0275 -4.21 3.3675 -6.25 2.6875 C-2.80384615 -0.38942308 -2.80384615 -0.38942308 0 0 Z " fill="#03509F" transform="translate(87.25,72.3125)"/>
<path d="M0 0 C0.33 0.66 0.66 1.32 1 2 C2.65 2 4.3 2 6 2 C6 2.66 6 3.32 6 4 C6.66 4.33 7.32 4.66 8 5 C6.02 5.33 4.04 5.66 2 6 C0 3 0 3 0 0 Z " fill="#6A8FBD" transform="translate(483,38)"/>
<path d="M0 0 C1.77155654 0.11429397 3.54226229 0.24183037 5.3125 0.375 C6.79169922 0.47941406 6.79169922 0.47941406 8.30078125 0.5859375 C11 1 11 1 14 3 C9.05 3 4.1 3 -1 3 C-0.67 2.01 -0.34 1.02 0 0 Z " fill="#094B90" transform="translate(95,17)"/>
<path d="M0 0 C1.98 0 3.96 0 6 0 C6.66 1.65 7.32 3.3 8 5 C5.03 4.505 5.03 4.505 2 4 C2 3.34 2 2.68 2 2 C1.34 2 0.68 2 0 2 C0 1.34 0 0.68 0 0 Z " fill="#618CBF" transform="translate(359,140)"/>
<path d="M0 0 C2 3 2 3 1.625 5.1875 C1.41875 5.785625 1.2125 6.38375 1 7 C0.01 6.67 -0.98 6.34 -2 6 C-2.33 6.66 -2.66 7.32 -3 8 C-3 5.69 -3 3.38 -3 1 C-2.67 1.66 -2.34 2.32 -2 3 C-1.34 3 -0.68 3 0 3 C0 2.01 0 1.02 0 0 Z " fill="#95AFCC" transform="translate(415,131)"/>
<path d="M0 0 C2.31 0 4.62 0 7 0 C7 0.66 7 1.32 7 2 C5.02 2.33 3.04 2.66 1 3 C1 4.98 1 6.96 1 9 C0.67 9 0.34 9 0 9 C0 6.03 0 3.06 0 0 Z " fill="#3F5587" transform="translate(162,133)"/>
<path d="M0 0 C3.7952131 1.49097658 5.61042731 3.75700849 8 7 C7.67 7.66 7.34 8.32 7 9 C4.03595495 6.19195732 1.55500981 3.81684226 0 0 Z " fill="#668CBA" transform="translate(247,34)"/>
<path d="M0 0 C0.33 0.99 0.66 1.98 1 3 C-1.64 3 -4.28 3 -7 3 C-7 2.34 -7 1.68 -7 1 C-4.53721199 -0.231394 -2.7204945 -0.07159196 0 0 Z " fill="#5679A3" transform="translate(409,143)"/>
<path d="M0 0 C0.66 0 1.32 0 2 0 C1.67 1.65 1.34 3.3 1 5 C-0.32 5.33 -1.64 5.66 -3 6 C-2.42655063 3.13275314 -2.1385485 2.1385485 0 0 Z " fill="#2F68A8" transform="translate(369,138)"/>
<path d="M0 0 C0.763125 0.20625 1.52625 0.4125 2.3125 0.625 C-0.08259338 3.52432357 -1.99995243 4.12668276 -5.6875 4.625 C-5.6875 3.635 -5.6875 2.645 -5.6875 1.625 C-2.6875 -0.375 -2.6875 -0.375 0 0 Z " fill="#507FB6" transform="translate(588.6875,74.375)"/>
<path d="M0 0 C0.66 0 1.32 0 2 0 C2.66 2.64 3.32 5.28 4 8 C2.68 8 1.36 8 0 8 C-0.79953138 4.71303767 -1.09658936 3.28976808 0 0 Z " fill="#0E5DA7" transform="translate(463,35)"/>
<path d="M0 0 C0.99 0 1.98 0 3 0 C2.6875 2.375 2.6875 2.375 2 5 C1.01 5.66 0.02 6.32 -1 7 C-2 4 -2 4 -1.0625 1.8125 C-0.5365625 0.9153125 -0.5365625 0.9153125 0 0 Z " fill="#4674AD" transform="translate(413,137)"/>
<path d="M0 0 C0.66 0.33 1.32 0.66 2 1 C1.8125 2.8125 1.8125 2.8125 1 5 C-1.5625 6.75 -1.5625 6.75 -4 8 C-4 6.68 -4 5.36 -4 4 C-2.68 4 -1.36 4 0 4 C0 2.68 0 1.36 0 0 Z " fill="#648BB7" transform="translate(208,66)"/>
<path d="M0 0 C0.99 0.66 1.98 1.32 3 2 C3 2.99 3 3.98 3 5 C1.02 5 -0.96 5 -3 5 C-2.01 3.35 -1.02 1.7 0 0 Z " fill="#4474AC" transform="translate(203,61)"/>
<path d="M0 0 C1.65 0 3.3 0 5 0 C4.38125 0.2475 3.7625 0.495 3.125 0.75 C0.61104784 2.22879539 0.1465949 3.37921165 -1 6 C-1.66 6.66 -2.32 7.32 -3 8 C-3.33 6.68 -3.66 5.36 -4 4 C-3.01 3.67 -2.02 3.34 -1 3 C-0.67 2.01 -0.34 1.02 0 0 Z " fill="#779CC3" transform="translate(545,44)"/>
<path d="M0 0 C1.33332095 2.6666419 0.67102033 4.16680303 0 7 C-1.32 6.67 -2.64 6.34 -4 6 C-3.6875 4.125 -3.6875 4.125 -3 2 C-2.01 1.34 -1.02 0.68 0 0 Z " fill="#0255A6" transform="translate(169,29)"/>
<path d="M0 0 C0.99 0 1.98 0 3 0 C3.433125 1.2065625 3.433125 1.2065625 3.875 2.4375 C4.73262568 5.1326468 4.73262568 5.1326468 7 6 C4.03824877 5.38722388 2.61941217 4.74627478 0 3 C0 2.01 0 1.02 0 0 Z " fill="#5A86B5" transform="translate(294,152)"/>
<path d="M0 0 C1 3 1 3 1 6 C-3.455 5.01 -3.455 5.01 -8 4 C-8 3.67 -8 3.34 -8 3 C-6.865625 2.690625 -5.73125 2.38125 -4.5625 2.0625 C-1.21224901 1.37075469 -1.21224901 1.37075469 0 0 Z " fill="#97B3D7" transform="translate(411,139)"/>
<path d="M0 0 C1.65 0.33 3.3 0.66 5 1 C5.33 2.32 5.66 3.64 6 5 C3.69 5 1.38 5 -1 5 C0.32 4.67 1.64 4.34 3 4 C2.01 2.68 1.02 1.36 0 0 Z " fill="#465A85" transform="translate(227,133)"/>
<path d="M0 0 C0.66 1.32 1.32 2.64 2 4 C-0.3431213 3.74438677 -2.67843403 3.40729228 -5 3 C-5.33 2.34 -5.66 1.68 -6 1 C-4.02 0.67 -2.04 0.34 0 0 Z " fill="#5984B5" transform="translate(490,75)"/>
<path d="M0 0 C0.99 0 1.98 0 3 0 C3 0.66 3 1.32 3 2 C1.03852126 3.38938077 -0.96166576 4.7260411 -3 6 C-3.66 5.67 -4.32 5.34 -5 5 C-4.67 4.01 -4.34 3.02 -4 2 C-2.68 2 -1.36 2 0 2 C0 1.34 0 0.68 0 0 Z " fill="#6B8EB8" transform="translate(118,70)"/>
<path d="M0 0 C0.66 0.33 1.32 0.66 2 1 C1.67 2.32 1.34 3.64 1 5 C-0.32 5 -1.64 5 -3 5 C-3 3.68 -3 2.36 -3 1 C-2.01 0.67 -1.02 0.34 0 0 Z " fill="#02549F" transform="translate(574,65)"/>
<path d="M0 0 C0 2.31 0 4.62 0 7 C-0.33 6.34 -0.66 5.68 -1 5 C-3.02463255 4.34786708 -3.02463255 4.34786708 -5 4 C-5 3.34 -5 2.68 -5 2 C-1.125 0 -1.125 0 0 0 Z " fill="#034996" transform="translate(472,58)"/>
<path d="M0 0 C1.65 0 3.3 0 5 0 C4 2 3 4 2 6 C1.34 6 0.68 6 0 6 C0 4.02 0 2.04 0 0 Z " fill="#5885B7" transform="translate(461,42)"/>
<path d="M0 0 C-0.33 1.32 -0.66 2.64 -1 4 C-2.875 4.625 -2.875 4.625 -5 5 C-5.66 4.34 -6.32 3.68 -7 3 C-2.25 0 -2.25 0 0 0 Z " fill="#A5B2C8" transform="translate(232,139)"/>
<path d="M0 0 C2.31 0 4.62 0 7 0 C7 0.66 7 1.32 7 2 C5.02 2.33 3.04 2.66 1 3 C0.67 2.01 0.34 1.02 0 0 Z " fill="#DEF0FA" transform="translate(182,138)"/>
<path d="M0 0 C0.66 0.33 1.32 0.66 2 1 C1.67 2.65 1.34 4.3 1 6 C-0.65 6 -2.3 6 -4 6 C-2.68 4.02 -1.36 2.04 0 0 Z " fill="#6B97C4" transform="translate(329,126)"/>
<path d="M0 0 C2 3 2 3 2 6 C0.68 6 -0.64 6 -2 6 C-1.125 1.125 -1.125 1.125 0 0 Z " fill="#8FCD49" transform="translate(289,122)"/>
<path d="M0 0 C0.99 0.33 1.98 0.66 3 1 C2.3125 2.9375 2.3125 2.9375 1 5 C-1.625 5.75 -1.625 5.75 -4 6 C-3.34 5.195625 -2.68 4.39125 -2 3.5625 C0.10254514 1.41038085 0.10254514 1.41038085 0 0 Z " fill="#0352A1" transform="translate(490,70)"/>
<path d="M0 0 C1.98 0.99 3.96 1.98 6 3 C5.67 4.32 5.34 5.64 5 7 C3.29115995 5.37660195 1.62553283 3.70680947 0 2 C0 1.34 0 0.68 0 0 Z " fill="#5B85B9" transform="translate(319,68)"/>
<path d="M0 0 C3.31012244 3.31012244 3.50351065 4.53159589 4 9 C3.01 9.495 3.01 9.495 2 10 C1.34 6.7 0.68 3.4 0 0 Z " fill="#5680B4" transform="translate(515,38)"/>
<path d="M0 0 C1.98 0.495 1.98 0.495 4 1 C3.34 2.65 2.68 4.3 2 6 C1.67 5.34 1.34 4.68 1 4 C0.34 4 -0.32 4 -1 4 C-0.67 2.68 -0.34 1.36 0 0 Z " fill="#5084B8" transform="translate(166,36)"/>
<path d="M0 0 C1.98 0.495 1.98 0.495 4 1 C3.49396008 3.16874252 3.00016187 4.99967627 2 7 C1.01 7 0.02 7 -1 7 C0 5 1 3 2 1 C1.34 0.67 0.68 0.34 0 0 Z " fill="#2169B0" transform="translate(488,33)"/>
<path d="M0 0 C0.33 1.32 0.66 2.64 1 4 C-0.98 4 -2.96 4 -5 4 C-5.33 3.34 -5.66 2.68 -6 2 C-3 0 -3 0 0 0 Z " fill="#0054AA" transform="translate(53,28)"/>
<path d="M0 0 C1.98 0.99 3.96 1.98 6 3 C5.34 4.32 4.68 5.64 4 7 C3.67 5.68 3.34 4.36 3 3 C1.68 3 0.36 3 -1 3 C-0.67 2.01 -0.34 1.02 0 0 Z " fill="#668DBF" transform="translate(114,21)"/>
<path d="M0 0 C5.75 0.75 5.75 0.75 8 3 C7.34 3 6.68 3 6 3 C6 3.99 6 4.98 6 6 C5.01 6 4.02 6 3 6 C3 4.68 3 3.36 3 2 C2.01 1.34 1.02 0.68 0 0 Z " fill="#6592C4" transform="translate(106,18)"/>
<path d="M0 0 C0.66 0 1.32 0 2 0 C1.25 1.9375 1.25 1.9375 0 4 C-2.125 4.75 -2.125 4.75 -4 5 C-4.33 4.01 -4.66 3.02 -5 2 C-3.35 2 -1.7 2 0 2 C0 1.34 0 0.68 0 0 Z " fill="#4E78AF" transform="translate(326,150)"/>
<path d="M0 0 C0.33 0 0.66 0 1 0 C1.28571429 7.42857143 1.28571429 7.42857143 -1 11 C-2.23076923 4.6 -2.23076923 4.6 -1.0625 1.5625 C-0.711875 1.046875 -0.36125 0.53125 0 0 Z " fill="#9AB6D5" transform="translate(333,132)"/>
<path d="M0 0 C0 1.65 0 3.3 0 5 C-2.31 4.34 -4.62 3.68 -7 3 C-6.67 2.34 -6.34 1.68 -6 1 C-2 0 -2 0 0 0 Z " fill="#04489C" transform="translate(366,127)"/>
<path d="M0 0 C3.69900008 0.88776002 7.34550461 1.94581864 11 3 C11 3.33 11 3.66 11 4 C9.54119891 3.85892253 8.08296449 3.71197585 6.625 3.5625 C5.40683594 3.44068359 5.40683594 3.44068359 4.1640625 3.31640625 C2 3 2 3 0 2 C0 1.34 0 0.68 0 0 Z " fill="#91A9C7" transform="translate(571,76)"/>
<path d="M0 0 C0.66 0.33 1.32 0.66 2 1 C2 1.99 2 2.98 2 4 C0.35 4 -1.3 4 -3 4 C-3 4.66 -3 5.32 -3 6 C-3.66 5.67 -4.32 5.34 -5 5 C-3.35 3.35 -1.7 1.7 0 0 Z " fill="#6590BC" transform="translate(485,52)"/>
<path d="M0 0 C0.99 0.33 1.98 0.66 3 1 C3.33 2.65 3.66 4.3 4 6 C3.01 6.495 3.01 6.495 2 7 C0.5393715 4.35261084 0 3.10551666 0 0 Z " fill="#4275B0" transform="translate(468,52)"/>
<path d="M0 0 C-0.99 0 -1.98 0 -3 0 C-3.33 1.98 -3.66 3.96 -4 6 C-6 3 -6 3 -6 0 C-3.50907189 -1.24546405 -2.58919267 -0.7767578 0 0 Z " fill="#8EA9CA" transform="translate(225,35)"/>
<path d="M0 0 C0.66 0 1.32 0 2 0 C1.01 3.3 0.02 6.6 -1 10 C-1.33 10 -1.66 10 -2 10 C-2.25 3.375 -2.25 3.375 0 0 Z " fill="#658CB5" transform="translate(79,34)"/>
<path d="M0 0 C2.31 0 4.62 0 7 0 C6.67 0.66 6.34 1.32 6 2 C3.6859378 2.73075648 1.35171131 3.40138258 -1 4 C-0.67 2.68 -0.34 1.36 0 0 Z " fill="#597FB0" transform="translate(87,26)"/>
<path d="M0 0 C0.99 0 1.98 0 3 0 C3 1.32 3 2.64 3 4 C1.02 4 -0.96 4 -3 4 C-2.67 3.34 -2.34 2.68 -2 2 C-1.34 2 -0.68 2 0 2 C0 1.34 0 0.68 0 0 Z " fill="#0153A2" transform="translate(108,24)"/>
</svg>
